<?xml version="1.0" standalone="no"?>
<!DOCTYPE svg PUBLIC "-//W3C//DTD SVG 1.1//EN" "http://www.w3.org/Graphics/SVG/1.1/DTD/svg11.dtd" >
<svg xmlns="http://www.w3.org/2000/svg" xmlns:xlink="http://www.w3.org/1999/xlink" version="1.1">
<metadata></metadata>
<defs>
<font id="sf_pro_textbold" horiz-adv-x="1415" >
<font-face units-per-em="2048" ascent="1638" descent="-410" />
<missing-glyph horiz-adv-x="528" />
<glyph horiz-adv-x="0" />
<glyph unicode="&#xd;" horiz-adv-x="0" />
<glyph unicode=" "  horiz-adv-x="528" />
<glyph unicode="&#x09;" horiz-adv-x="528" />
<glyph unicode="&#xa0;" horiz-adv-x="528" />
<glyph unicode="!" horiz-adv-x="730" d="M183 140q0 79 49 125t133 46q85 0 133.5 -45.5t48.5 -125.5q0 -79 -48.5 -124.5t-133.5 -45.5q-84 0 -133 45.5t-49 124.5zM205 1443h320l-27 -968h-267z" />
<glyph unicode="&#x22;" horiz-adv-x="1016" d="M152 831v612h250v-612h-250zM614 831v612h250v-612h-250z" />
<glyph unicode="#" horiz-adv-x="1360" d="M32 378l41 222h227l54 262h-231l42 220h231l74 362h221l-72 -362h258l74 362h222l-73 -362h236l-41 -220h-239l-54 -262h241l-41 -222h-243l-76 -378h-222l77 378h-260l-76 -378h-221l76 378h-225zM503 580h287l63 301h-288z" />
<glyph unicode="$" d="M141 410h286q5 -74 64.5 -125t152.5 -61v372l-105 25q-181 42 -275 144.5t-94 258.5q0 184 125 297t349 131v136h140v-136q209 -20 334 -133.5t128 -286.5h-279q-2 68 -53 119t-130 62v-356l107 -22q383 -82 383 -404q0 -191 -127.5 -305t-362.5 -134v-127h-140v125 q-235 13 -368.5 125t-134.5 295zM460 1052q0 -63 47 -105.5t137 -60.5v328q-81 -4 -132.5 -49.5t-51.5 -112.5zM784 223q97 6 151.5 52t54.5 122q0 136 -206 174v-348z" />
<glyph unicode="%" horiz-adv-x="1701" d="M65 1111q0 164 93.5 264.5t244.5 100.5q152 0 245 -100.5t93 -264.5q0 -165 -93 -266t-245 -101q-151 0 -244.5 101t-93.5 266zM224 0l545 756l434 687h281l-554 -762l-424 -681h-282zM288 1111q0 -81 31 -128t84 -47t84 47t31 128q0 82 -30.5 128.5t-84.5 46.5 q-53 0 -84 -47t-31 -128zM961 333q0 164 93 265t244 101q152 0 245 -100.5t93 -265.5q0 -164 -93 -265t-245 -101q-151 0 -244 101t-93 265zM1183 334q0 -81 31 -128t84 -47t84 47t31 128q0 82 -30.5 128t-84.5 46q-53 0 -84 -46.5t-31 -127.5z" />
<glyph unicode="&#x26;" horiz-adv-x="1525" d="M107 377q0 124 64.5 216t204.5 169q3 1 32.5 17.5t31.5 17.5q-98 101 -138.5 176t-40.5 155q0 146 116.5 241.5t294.5 95.5q177 0 290 -92.5t113 -238.5q0 -112 -71.5 -204t-222.5 -174l277 -287q51 90 51 263v71h245v-90q0 -265 -123 -431l268 -282h-327l-111 117 q-80 -68 -198.5 -106.5t-250.5 -38.5q-230 0 -367.5 110t-137.5 295zM380 402q0 -94 72.5 -152.5t189.5 -58.5q79 0 151 26.5t115 71.5l-331 349q-16 -6 -42 -20q-155 -84 -155 -216zM512 1112q0 -49 29.5 -96.5t104.5 -118.5q99 49 142.5 100t43.5 115q0 68 -44 110.5 t-115 42.5t-116 -43t-45 -110z" />
<glyph unicode="'" horiz-adv-x="553" d="M152 831v612h250v-612h-250z" />
<glyph unicode="(" horiz-adv-x="878" d="M223 607q0 560 297 917h268q-112 -142 -188 -400.5t-76 -515.5t76 -515.5t188 -402.5h-268q-297 360 -297 917z" />
<glyph unicode=")" horiz-adv-x="878" d="M90 -310q113 143 188.5 401.5t75.5 516.5q0 257 -76 515.5t-188 400.5h269q296 -357 296 -917q0 -559 -296 -917h-269z" />
<glyph unicode="*" horiz-adv-x="1032" d="M124 961l272 109l-272 108l100 180l232 -185l-40 293h201l-41 -293l232 185l100 -180l-271 -108l271 -109l-100 -178l-230 179l39 -288h-201l39 288l-231 -179z" />
<glyph unicode="+" d="M168 455v258h412v408h255v-408h413v-258h-413v-409h-255v409h-412z" />
<glyph unicode="," horiz-adv-x="712" d="M141 -391l92 625h285l-182 -625h-195z" />
<glyph unicode="-" horiz-adv-x="992" d="M168 446v273h657v-273h-657z" />
<glyph unicode="." horiz-adv-x="712" d="M179 147q0 76 48.5 124.5t128.5 48.5t128.5 -48t48.5 -125t-48.5 -125.5t-128.5 -48.5t-128.5 48.5t-48.5 125.5z" />
<glyph unicode="/" horiz-adv-x="793" d="M0 -310l522 1834h271l-522 -1834h-271z" />
<glyph unicode="0" horiz-adv-x="1402" d="M128 724q0 357 152.5 556.5t420.5 199.5q267 0 420 -200t153 -557t-152.5 -558.5t-420.5 -201.5t-420.5 201.5t-152.5 559.5zM434 724q0 -249 70.5 -382t196.5 -133t196.5 132.5t70.5 382.5q0 248 -70.5 378.5t-196.5 130.5q-125 0 -196 -131t-71 -378z" />
<glyph unicode="1" horiz-adv-x="1051" d="M123 905v281l373 257h301v-1443h-302v1149h-18z" />
<glyph unicode="2" horiz-adv-x="1318" d="M129 1006v5q0 209 146 339t380 130q226 0 368.5 -117.5t142.5 -303.5q0 -118 -74 -234.5t-261 -292.5l-276 -263v-18h632v-251h-1041v211l471 461q152 148 203 222t51 145q0 87 -63.5 142.5t-162.5 55.5q-105 0 -170.5 -62.5t-65.5 -162.5v-6h-280z" />
<glyph unicode="3" horiz-adv-x="1370" d="M126 413h289q7 -92 79 -145.5t188 -53.5q113 0 184.5 58t71.5 150q0 95 -70 149.5t-191 54.5h-179v225h176q103 0 166.5 55t63.5 143q0 87 -62.5 138.5t-168.5 51.5q-105 0 -170 -55t-71 -149h-279q8 205 150 325t378 120q222 0 365.5 -109.5t143.5 -279.5 q0 -125 -72.5 -215t-193.5 -115v-18q149 -17 235.5 -109.5t86.5 -234.5q0 -125 -72.5 -224.5t-202.5 -155.5t-292 -56q-241 0 -392 123t-161 327z" />
<glyph unicode="4" horiz-adv-x="1410" d="M114 252v267q169 319 571 924h423v-940h189v-251h-189v-252h-288v252h-706zM385 494h442v714h-16q-231 -345 -426 -698v-16z" />
<glyph unicode="5" horiz-adv-x="1359" d="M154 410h279q13 -90 85 -145t175 -55q117 0 189.5 72t72.5 189q0 119 -73 192t-188 73q-167 0 -247 -130h-270l72 837h907v-251h-673l-32 -371h18q98 141 306 141q205 0 336.5 -136t131.5 -348q0 -230 -152 -372.5t-400 -142.5q-233 0 -381.5 125.5t-155.5 321.5z" />
<glyph unicode="6" horiz-adv-x="1401" d="M125 711q0 359 160 564t442 205q206 0 351.5 -111t176.5 -292h-299q-21 71 -83.5 113t-147.5 42q-148 0 -232.5 -132.5t-79.5 -357.5h18q49 102 145.5 157.5t222.5 55.5q205 0 340 -136t135 -343q0 -225 -155 -369t-397 -144q-157 0 -279.5 67t-196.5 194 q-121 186 -121 487zM458 470q0 -110 75 -184.5t186 -74.5t186.5 73.5t75.5 182.5q0 110 -74 182.5t-187 72.5t-187.5 -72t-74.5 -180z" />
<glyph unicode="7" horiz-adv-x="1239" d="M97 1195v249h1032v-252l-603 -1192h-316l615 1177v18h-728z" />
<glyph unicode="8" horiz-adv-x="1421" d="M128 385q0 136 86.5 236.5t231.5 132.5v18q-118 27 -189 113t-71 201q0 173 147.5 283.5t377.5 110.5q229 0 376.5 -110.5t147.5 -283.5q0 -115 -70.5 -200.5t-189.5 -113.5v-18q144 -27 231.5 -127.5t87.5 -238.5q0 -190 -162 -307.5t-422 -117.5t-421 117t-161 305z M442 413q0 -98 74.5 -160t193.5 -62t194 62t75 160q0 99 -75 161t-194 62t-193.5 -62t-74.5 -161zM484 1057q0 -87 63 -142.5t163 -55.5t163.5 55.5t63.5 142.5q0 88 -63.5 143.5t-163.5 55.5t-163 -55.5t-63 -143.5z" />
<glyph unicode="9" horiz-adv-x="1401" d="M127 967q0 225 155 369t397 144q156 0 278.5 -66.5t197.5 -193.5q121 -188 121 -487q0 -360 -160 -565t-442 -205q-205 0 -351 111.5t-177 291.5h299q21 -71 83.5 -113t147.5 -42q148 0 232.5 133t79.5 358h-9h-7h-2q-49 -102 -145.5 -157.5t-222.5 -55.5 q-206 0 -340.5 135.5t-134.5 342.5zM420 977q0 -111 74 -183t187 -72t187.5 71.5t74.5 180.5q0 110 -75 184.5t-186 74.5t-186.5 -74t-75.5 -182z" />
<glyph unicode=":" horiz-adv-x="712" d="M179 147q0 76 48.5 124.5t128.5 48.5t128.5 -48t48.5 -125t-48.5 -125.5t-128.5 -48.5t-128.5 48.5t-48.5 125.5zM179 885q0 76 48.5 124.5t128.5 48.5t128.5 -48t48.5 -125t-48.5 -125.5t-128.5 -48.5t-128.5 48.5t-48.5 125.5z" />
<glyph unicode=";" horiz-adv-x="712" d="M122 -391l96 625h286l-178 -625h-204zM179 885q0 76 48.5 124.5t128.5 48.5t128.5 -48t48.5 -125t-48.5 -125.5t-128.5 -48.5t-128.5 48.5t-48.5 125.5z" />
<glyph unicode="&#x3c;" d="M231 474v235l953 496v-301l-657 -303v-19l657 -303v-301z" />
<glyph unicode="=" d="M171 216v259h1073v-259h-1073zM171 695v259h1073v-259h-1073z" />
<glyph unicode="&#x3e;" d="M231 -22v301l657 303v19l-657 303v301l953 -496v-235z" />
<glyph unicode="?" horiz-adv-x="1141" d="M78 1035q4 191 132 306t354 115q214 0 344.5 -108t130.5 -282q0 -111 -53 -193t-161 -145q-100 -58 -135 -104t-35 -118v-53h-265l-2 55q-10 118 32.5 193.5t147.5 137.5q98 58 133 103.5t35 114.5q0 70 -52.5 114.5t-137.5 44.5q-86 0 -139 -49t-58 -132h-271zM351 140 q0 79 49 125t133 46t132.5 -46t48.5 -125t-48.5 -124.5t-132.5 -45.5t-133 45.5t-49 124.5z" />
<glyph unicode="@" horiz-adv-x="1899" d="M127 616q0 244 106.5 434t299 295t439.5 105q237 0 420.5 -93.5t285 -262.5t101.5 -387q0 -239 -106 -378t-287 -139q-94 0 -157.5 42t-80.5 114h-18q-64 -153 -240 -153q-156 0 -251 116t-95 306q0 182 93 295t243 113q80 0 142 -37t92 -104h18v119h202v-530 q0 -53 25 -82.5t71 -29.5q76 0 121 89.5t45 241.5q0 271 -172.5 434.5t-457.5 163.5q-290 0 -473 -189t-183 -488q0 -304 187.5 -483t506.5 -179q180 0 272 33v-163q-122 -36 -287 -36q-258 0 -453.5 103t-302 292t-106.5 438zM771 609q0 -107 44.5 -167.5t123.5 -60.5 q80 0 127 61t47 167t-46.5 167t-126.5 61q-79 0 -124 -60.5t-45 -167.5z" />
<glyph unicode="A" horiz-adv-x="1500" d="M72 0l501 1443h355l501 -1443h-327l-109 344h-507l-111 -344h-303zM551 577h378l-179 566h-18z" />
<glyph unicode="B" horiz-adv-x="1420" d="M175 0v1443h631q209 0 328 -96t119 -264q0 -115 -75 -203t-186 -105v-18q143 -11 236.5 -108t93.5 -236q0 -190 -134 -301.5t-365 -111.5h-648zM477 231h269q130 0 199 53.5t69 154.5q0 99 -70.5 150.5t-204.5 51.5h-262v-410zM477 845h227q122 0 187 48t65 135 t-59.5 135.5t-167.5 48.5h-252v-367z" />
<glyph unicode="C" horiz-adv-x="1518" d="M111 722q0 352 181.5 555t495.5 203q256 0 432.5 -152.5t193.5 -388.5h-294q-22 125 -112.5 200t-219.5 75q-170 0 -269 -132t-99 -360t99 -360.5t270 -132.5q130 0 220 71t112 190h294q-19 -234 -192.5 -380.5t-434.5 -146.5q-314 0 -495.5 203.5t-181.5 555.5z" />
<glyph unicode="D" horiz-adv-x="1530" d="M175 0v1444h568q322 0 499.5 -186.5t177.5 -525.5q0 -351 -176.5 -541.5t-500.5 -190.5h-568zM477 258h218q201 0 309 120.5t108 348.5q0 218 -110 338.5t-307 120.5h-218v-928z" />
<glyph unicode="E" horiz-adv-x="1274" d="M175 0v1443h956v-258h-654v-337h617v-239h-617v-351h654v-258h-956z" />
<glyph unicode="F" horiz-adv-x="1224" d="M175 0v1443h945v-258h-643v-376h587v-247h-587v-562h-302z" />
<glyph unicode="G" horiz-adv-x="1557" d="M111 723q0 349 185 553t500 204q256 0 429 -136t205 -361h-300q-34 110 -121 170.5t-213 60.5q-175 0 -275.5 -130.5t-100.5 -357.5q0 -231 104.5 -364t283.5 -133q148 0 242 80t99 211l1 26h-313v227h606v-184q0 -289 -172 -457.5t-468 -168.5q-322 0 -507 203t-185 557 z" />
<glyph unicode="H" horiz-adv-x="1604" d="M175 0v1443h302v-582h650v582h302v-1443h-302v603h-650v-603h-302z" />
<glyph unicode="I" horiz-adv-x="652" d="M175 0v1443h302v-1443h-302z" />
<glyph unicode="J" horiz-adv-x="1231" d="M76 424h292q2 -87 54.5 -139t139.5 -52q93 0 142.5 55.5t49.5 161.5v993h302v-995q0 -232 -129.5 -358.5t-360.5 -126.5q-223 0 -356.5 125t-133.5 336z" />
<glyph unicode="K" horiz-adv-x="1453" d="M175 0v1443h302v-643h18l533 643h336l-526 -633l563 -810h-362l-419 604l-143 -169v-435h-302z" />
<glyph unicode="L" horiz-adv-x="1218" d="M175 0v1443h302v-1180h642v-263h-944z" />
<glyph unicode="M" horiz-adv-x="1878" d="M175 0v1443h356l399 -970h18l400 970h355v-1443h-280v965h-16l-367 -882h-201l-368 882h-16v-965h-280z" />
<glyph unicode="N" horiz-adv-x="1573" d="M175 0v1443h252l664 -899h18v899h289v-1443h-250l-666 903h-18v-903h-289z" />
<glyph unicode="O" horiz-adv-x="1610" d="M111 722q0 350 188 554t507 204q320 0 506.5 -204t186.5 -554q0 -351 -186.5 -555t-506.5 -204q-321 0 -508 204t-187 555zM420 722q0 -226 104.5 -360t281.5 -134q176 0 280.5 134t104.5 360t-104.5 359.5t-280.5 133.5t-281 -133.5t-105 -359.5z" />
<glyph unicode="P" horiz-adv-x="1380" d="M175 0v1443h602q223 0 361.5 -137.5t138.5 -361.5q0 -222 -143 -359t-372 -137h-285v-448h-302zM477 693h219q131 0 202.5 64.5t71.5 185.5q0 122 -71 187t-202 65h-220v-502z" />
<glyph unicode="Q" horiz-adv-x="1610" d="M111 722q0 350 188 554t507 204t506 -204t187 -554q0 -194 -58.5 -345.5t-168.5 -245.5l179 -272h-292l-100 142q-116 -38 -253 -38q-321 0 -508 203.5t-187 555.5zM420 722q0 -228 105 -361t282 -133q49 0 104 13l-164 240h274l67 -81q103 111 103 322q0 226 -105 359.5 t-280 133.5q-176 0 -281 -133.5t-105 -359.5z" />
<glyph unicode="R" horiz-adv-x="1422" d="M175 0v1443h606q238 0 375 -124t137 -339q0 -140 -69.5 -250.5t-192.5 -159.5l304 -570h-342l-269 523h-247v-523h-302zM477 755h265q114 0 177.5 58.5t63.5 162.5q0 103 -66 163t-178 60h-262v-444z" />
<glyph unicode="S" horiz-adv-x="1383" d="M110 401h292q10 -88 92 -140t210 -52q118 0 193 51.5t75 133.5q0 69 -58 112t-191 71l-188 40q-392 82 -392 412q0 204 151 327.5t401 123.5q238 0 391.5 -121t160.5 -314h-284q-11 86 -84 138t-182 52q-114 0 -182.5 -49t-68.5 -131q0 -67 55.5 -108t182.5 -68l174 -37 q217 -46 316 -144t99 -266q0 -218 -156.5 -343.5t-428.5 -125.5q-258 0 -414 118t-164 320z" />
<glyph unicode="T" horiz-adv-x="1352" d="M92 1185v258h1168v-258h-433v-1185h-302v1185h-433z" />
<glyph unicode="U" horiz-adv-x="1564" d="M178 498v945h302v-914q0 -138 79.5 -218t222.5 -80q144 0 223.5 80t79.5 218v914h302v-945q0 -241 -164.5 -388t-440.5 -147q-275 0 -439.5 147t-164.5 388z" />
<glyph unicode="V" horiz-adv-x="1477" d="M72 1443h341l328 -1103h18l322 1103h325l-481 -1443h-365z" />
<glyph unicode="W" horiz-adv-x="2067" d="M88 1443h314l225 -1017h16l263 1017h255l268 -1017h16l223 1017h312l-383 -1443h-283l-273 955h-16l-270 -955h-285z" />
<glyph unicode="X" horiz-adv-x="1494" d="M88 0l461 727l-458 716h355l301 -505h18l304 505h338l-475 -721l468 -722h-344l-310 489h-18l-314 -489h-326z" />
<glyph unicode="Y" horiz-adv-x="1451" d="M72 1443h327l318 -604h18l317 604h327l-502 -912v-531h-302v531z" />
<glyph unicode="Z" horiz-adv-x="1384" d="M135 0v204l726 963v18h-709v258h1077v-203l-724 -964v-18h744v-258h-1114z" />
<glyph unicode="[" horiz-adv-x="878" d="M252 -310v1834h554v-223h-274v-1388h274v-223h-554z" />
<glyph unicode="\" horiz-adv-x="793" d="M0 1524h276l517 -1834h-276z" />
<glyph unicode="]" horiz-adv-x="878" d="M73 -87h273v1388h-273v223h554v-1834h-554v223z" />
<glyph unicode="^" horiz-adv-x="1066" d="M85 772l319 636h259l319 -636h-257l-183 410h-18l-182 -410h-257z" />
<glyph unicode="_" horiz-adv-x="945" d="M-2 -107h949v-227h-949v227z" />
<glyph unicode="`" horiz-adv-x="1098" d="M270 1634h309l247 -353h-269z" />
<glyph unicode="a" horiz-adv-x="1208" d="M87 315q0 149 110.5 234.5t316.5 97.5l267 16v90q0 69 -48 106.5t-138 37.5q-162 0 -199 -102h-268q14 153 144.5 242.5t338.5 89.5q218 0 337.5 -98t119.5 -276v-753h-282v144h-18q-43 -76 -128 -118.5t-192 -42.5q-160 0 -260.5 91t-100.5 241zM372 334 q0 -61 47.5 -96.5t124.5 -35.5q101 0 169 57t68 141v81l-223 -14q-186 -13 -186 -133z" />
<glyph unicode="b" horiz-adv-x="1334" d="M156 0v1524h291v-597h18q42 91 130 142.5t201 51.5q209 0 328 -151t119 -418q0 -265 -119.5 -417t-327.5 -152q-117 0 -206.5 50t-133.5 140h-18v-173h-282zM444 551q1 -150 68.5 -237.5t182.5 -87.5q116 0 182.5 87t66.5 239q0 151 -67 238t-182 87t-182.5 -87.5 t-68.5 -238.5z" />
<glyph unicode="c" horiz-adv-x="1203" d="M92 554q0 275 140 424t399 149q216 0 344.5 -111t146.5 -302h-272q-15 81 -71.5 127.5t-147.5 46.5q-118 0 -181.5 -86t-63.5 -248q0 -164 63.5 -251.5t181.5 -87.5q90 0 146.5 43t72.5 124h272q-18 -187 -148 -296.5t-343 -109.5q-258 0 -398.5 150.5t-140.5 427.5z" />
<glyph unicode="d" horiz-adv-x="1334" d="M92 553q0 263 120.5 415.5t328.5 152.5q112 0 199 -51.5t130 -142.5h17v597h291v-1524h-282v173h-18q-44 -89 -133 -139.5t-204 -50.5q-208 0 -328.5 153t-120.5 417zM391 552q0 -153 66 -239.5t183 -86.5t183.5 86.5t66.5 238.5q0 151 -67 238.5t-183 87.5t-182.5 -86.5 t-66.5 -238.5z" />
<glyph unicode="e" horiz-adv-x="1231" d="M92 546q0 269 142 425t388 156q244 0 380.5 -147t136.5 -410v-89h-757v-15q3 -123 70.5 -194.5t181.5 -71.5q86 0 144 29.5t81 84.5h271q-33 -157 -167.5 -247.5t-336.5 -90.5q-252 0 -393 150.5t-141 419.5zM383 667h470q-5 110 -66.5 173.5t-163.5 63.5 q-101 0 -166.5 -65t-73.5 -172z" />
<glyph unicode="f" horiz-adv-x="836" d="M53 863v229h178v112q0 167 90.5 248.5t287.5 81.5q84 0 150 -11v-206q-48 5 -87 5q-84 0 -120 -33.5t-36 -105.5v-91h234v-229h-228v-863h-291v863h-178z" />
<glyph unicode="g" horiz-adv-x="1322" d="M89 561q0 257 121.5 408.5t330.5 151.5q112 0 201.5 -52t133.5 -143h18v177h282v-1099q0 -194 -147 -308t-397 -114q-218 0 -354.5 88.5t-150.5 234.5h288q11 -51 70 -81t153 -30q117 0 182 51.5t65 144.5v204h-18q-94 -178 -332 -178q-206 0 -326 147.5t-120 397.5z M388 562q0 -147 65 -231.5t183 -84.5t185 84.5t67 230.5t-67.5 231t-184.5 85t-182.5 -84.5t-65.5 -230.5z" />
<glyph unicode="h" horiz-adv-x="1307" d="M156 0v1524h286v-602h18q39 95 125.5 148.5t207.5 53.5q179 0 278.5 -108t99.5 -306v-710h-291v641q0 114 -52 173t-151 59q-108 0 -169 -65.5t-61 -174.5v-633h-291z" />
<glyph unicode="i" horiz-adv-x="587" d="M122 1404q0 66 47 106.5t125 40.5t125 -40.5t47 -106.5q0 -65 -47.5 -106t-124.5 -41q-78 0 -125 41t-47 106zM148 0v1103h291v-1103h-291z" />
<glyph unicode="j" horiz-adv-x="587" d="M-29 -149q6 -1 37 -1q76 0 108 29t32 95v1129h291v-1137q0 -169 -99 -255.5t-291 -86.5q-54 0 -78 4v223zM122 1404q0 66 47 106.5t125 40.5t125 -40.5t47 -106.5q0 -65 -47.5 -106t-124.5 -41q-78 0 -125 41t-47 106z" />
<glyph unicode="k" horiz-adv-x="1232" d="M156 0v1524h291v-852h18l369 431h331l-420 -473l449 -630h-345l-322 448l-80 -82v-366h-291z" />
<glyph unicode="l" horiz-adv-x="603" d="M156 0v1524h291v-1524h-291z" />
<glyph unicode="m" horiz-adv-x="1899" d="M146 0v1103h282v-180h18q34 95 115.5 149.5t189.5 54.5q115 0 193.5 -53.5t111.5 -150.5h18q39 93 128 148.5t204 55.5q165 0 261 -100t96 -270v-757h-291v680q0 196 -184 196q-88 0 -141 -56t-53 -145v-675h-280v692q0 87 -48 135.5t-134 48.5q-85 0 -140 -60t-55 -152 v-664h-291z" />
<glyph unicode="n" horiz-adv-x="1285" d="M146 0v1103h282v-177h18q39 95 122.5 148t203.5 53q183 0 280 -107.5t97 -306.5v-713h-291v644q0 232 -203 232q-101 0 -159.5 -65.5t-58.5 -174.5v-636h-291z" />
<glyph unicode="o" horiz-adv-x="1269" d="M92 552q0 268 145.5 421.5t397.5 153.5t397.5 -153.5t145.5 -421.5q0 -270 -144.5 -423t-398.5 -153t-398.5 153t-144.5 423zM391 552q0 -161 63.5 -249.5t180.5 -88.5q116 0 180 88.5t64 249.5q0 159 -64.5 248t-179.5 89q-116 0 -180 -89t-64 -248z" />
<glyph unicode="p" horiz-adv-x="1324" d="M146 -366v1469h282v-181h18q45 93 134 146t203 53q210 0 330 -151t120 -418q0 -266 -119 -417.5t-326 -151.5q-118 0 -205 49t-128 137h-18v-535h-291zM434 551q0 -151 67 -238t183 -87q118 0 184 86.5t66 239.5q0 152 -66.5 238.5t-182.5 86.5t-183.5 -87.5 t-67.5 -238.5z" />
<glyph unicode="q" horiz-adv-x="1324" d="M92 553q0 263 121.5 415.5t329.5 152.5q111 0 200.5 -53.5t133.5 -145.5h18v181h283v-1469h-292v535h-18q-45 -89 -130 -137.5t-201 -48.5q-207 0 -326 152.5t-119 417.5zM391 552q0 -153 65.5 -239.5t181.5 -86.5q117 0 184.5 87t67.5 238t-67.5 238.5t-183.5 87.5 t-182 -86.5t-66 -238.5z" />
<glyph unicode="r" horiz-adv-x="891" d="M146 0v1103h282v-176h18q22 84 100.5 139t182.5 55q75 0 114 -14v-265q-46 18 -138 18q-121 0 -194.5 -67t-73.5 -182v-611h-291z" />
<glyph unicode="s" horiz-adv-x="1160" d="M94 307h284q35 -118 209 -118q85 0 138 32.5t53 85.5q0 41 -33 66.5t-106 41.5l-200 45q-161 35 -239.5 113.5t-78.5 205.5q0 157 126.5 252.5t332.5 95.5q210 0 329.5 -85t131.5 -243h-269q-11 54 -60.5 84.5t-129.5 30.5q-79 0 -130 -32.5t-51 -84.5q0 -40 36 -66.5 t113 -43.5l207 -45q161 -35 235.5 -107t74.5 -195q0 -164 -134 -264t-352 -100t-345 86t-142 245z" />
<glyph unicode="t" horiz-adv-x="845" d="M57 863v229h172v273h291v-273h229v-229h-229v-496q0 -72 34.5 -106t108.5 -34q49 0 86 4v-222q-67 -13 -146 -13q-201 0 -287.5 70t-86.5 232v565h-172z" />
<glyph unicode="u" horiz-adv-x="1290" d="M136 384v719h291v-644q0 -230 203 -230q107 0 165 63t58 175v636h291v-1103h-282v177h-18q-82 -201 -322 -201q-179 0 -282.5 108.5t-103.5 299.5z" />
<glyph unicode="v" horiz-adv-x="1194" d="M51 1103h313l228 -822h18l226 822h307l-381 -1103h-328z" />
<glyph unicode="w" horiz-adv-x="1735" d="M61 1103h295l164 -791h18l193 791h278l194 -791h18l164 791h289l-293 -1103h-310l-197 761h-18l-195 -761h-306z" />
<glyph unicode="x" horiz-adv-x="1190" d="M64 1103h334l195 -362h18l195 362h318l-346 -545l349 -558h-324l-205 360h-18l-205 -360h-309l346 545z" />
<glyph unicode="y" horiz-adv-x="1223" d="M56 1103h321l232 -836h18l232 836h308l-380 -1120q-70 -212 -183.5 -298t-320.5 -86q-93 0 -111 3v234q10 -2 66 -2q83 0 130 28.5t65 90.5l10 40z" />
<glyph unicode="z" horiz-adv-x="1160" d="M121 0v172l558 681v18h-550v232h898v-192l-526 -661v-18h539v-232h-919z" />
<glyph unicode="{" horiz-adv-x="878" d="M73 466v287q128 1 182 47t54 156v192q0 198 100 287t323 89h74v-220h-44q-95 0 -134.5 -43.5t-39.5 -147.5v-237q0 -108 -67 -172t-195 -78v-33q128 -14 195 -78t67 -173v-242q0 -104 39.5 -147.5t134.5 -43.5h44v-219h-74q-223 0 -323 90.5t-100 290.5v192 q0 109 -53.5 155t-182.5 48z" />
<glyph unicode="|" horiz-adv-x="793" d="M260 -310v1834h273v-1834h-273z" />
<glyph unicode="}" horiz-adv-x="878" d="M73 -91h44q95 0 134.5 43.5t39.5 147.5v242q0 109 67 173t195 78v33q-128 14 -195 78t-67 172v237q0 104 -39.5 147.5t-134.5 43.5h-44v220h74q223 0 322.5 -89t99.5 -287v-192q0 -110 54 -156t183 -47v-287q-129 -2 -183 -48t-54 -155v-192q0 -200 -100 -290.5 t-322 -90.5h-74v219z" />
<glyph unicode="~" horiz-adv-x="1225" d="M82 525q-2 432 321 432q68 0 127 -30t132 -101q44 -43 74.5 -61t60.5 -18q113 0 119 178h227q1 -219 -76.5 -325.5t-239.5 -106.5q-70 0 -130 29.5t-131 99.5q-47 46 -76.5 63.5t-60.5 17.5q-115 0 -119 -178h-228z" />
<glyph unicode="&#xa2;" d="M158 700q0 224 120.5 373t319.5 187v189h242v-185q171 -29 284 -137t129 -267h-272q-22 80 -89 127t-159 47q-122 0 -201.5 -90t-79.5 -244q0 -156 79.5 -247t200.5 -91q100 0 165 44t84 122h272q-16 -160 -127.5 -264.5t-285.5 -131.5v-184h-242v188q-200 39 -320 188.5 t-120 375.5z" />
<glyph unicode="&#xa3;" d="M141 0v240q134 19 218.5 109t84.5 215q0 35 -6 68h-293v213h224q-59 148 -59 243q0 186 146.5 289t411.5 103q90 0 184 -14.5t146 -35.5v-244q-49 22 -131 36.5t-161 14.5q-139 0 -216 -52t-77 -146q0 -72 44 -194h415v-213h-348q3 -24 3 -49q0 -100 -49.5 -185 t-126.5 -122v-19h714v-257h-1124z" />
<glyph unicode="&#xa5;" d="M54 1443h327l318 -604h18l317 604h327l-426 -766h195v-169h-271v-133h271v-169h-271v-206h-302v206h-271v169h271v133h-271v169h195z" />
<glyph unicode="&#xa8;" horiz-adv-x="1176" d="M199 1419q0 66 43.5 108.5t111.5 42.5t111.5 -42.5t43.5 -108.5t-44 -109t-111 -43t-111 43t-44 109zM667 1419q0 66 44 108.5t111 42.5q68 0 112 -42.5t44 -108.5t-44 -109t-112 -43q-67 0 -111 43t-44 109z" />
<glyph unicode="&#xa9;" horiz-adv-x="1742" d="M83 652q0 162 61.5 308.5t167 251.5t251.5 167t308 62q163 0 309 -62t251.5 -167t167 -251.5t61.5 -308.5t-62 -308t-167 -251t-251.5 -167t-308.5 -62t-308 62t-251 167t-167 251t-62 308zM247 652q0 -128 49 -243t132 -198t198.5 -132t244.5 -49t245 48.5t199 132 t132 198.5t49 243q0 172 -82.5 315t-226.5 225.5t-316 82.5q-129 0 -244.5 -49t-198.5 -132t-132 -198.5t-49 -243.5zM505 654q0 182 103 288.5t278 106.5q146 0 242 -79t110 -211h-188q-11 58 -55 92t-107 34q-85 0 -133.5 -61.5t-48.5 -169.5q0 -110 48.5 -172t133.5 -62 q66 0 108.5 31.5t53.5 88.5h188q-14 -132 -108 -208t-243 -76q-177 0 -279.5 107t-102.5 291z" />
<glyph unicode="&#xab;" horiz-adv-x="1447" d="M158 562v8l349 411h271l-347 -409v-11l347 -410h-276zM669 562v8l349 411h271l-347 -409v-11l347 -410h-276z" />
<glyph unicode="&#xad;" horiz-adv-x="992" d="M168 446v273h657v-273h-657z" />
<glyph unicode="&#xae;" horiz-adv-x="1260" d="M100 969q0 145 71 267t193 193t266 71q145 0 267 -71t192.5 -193t70.5 -267t-70.5 -267t-192.5 -193t-267 -71q-144 0 -266 71t-193 193t-71 267zM233 969q0 -164 116 -279.5t281 -115.5q166 0 281.5 115.5t115.5 279.5q0 165 -115.5 280t-281.5 115q-165 0 -281 -115 t-116 -280zM421 733v487h256q80 0 130 -43t50 -113q0 -56 -27 -95t-76 -53l127 -183h-149l-111 165h-75v-165h-125zM546 995h99q78 0 78 60q0 61 -76 61h-101v-121z" />
<glyph unicode="&#xb4;" horiz-adv-x="1098" d="M260 1281l247 353h309l-287 -353h-269z" />
<glyph unicode="&#xb8;" horiz-adv-x="1098" d="M367 -338q42 -14 116 -14q112 0 112 59q0 30 -30.5 43t-99.5 13h-60v116l64 148h161v-27l-45 -108q95 -5 145.5 -50.5t50.5 -126.5q0 -97 -70 -151t-197 -54q-86 0 -147 18v134z" />
<glyph unicode="&#xbb;" horiz-adv-x="1447" d="M158 151l347 410v11l-347 409h271l349 -411v-8l-344 -411h-276zM669 151l347 410v11l-347 409h271l349 -411v-8l-344 -411h-276z" />
<glyph unicode="&#x2c6;" horiz-adv-x="1099" d="M129 1251l275 354h291l275 -354h-263l-148 209h-18l-149 -209h-263z" />
<glyph unicode="&#x2da;" horiz-adv-x="1099" d="M304 1492q0 102 70.5 170t175.5 68t175 -67.5t70 -170.5q0 -104 -70 -172.5t-175 -68.5t-175.5 68.5t-70.5 172.5zM444 1491q0 -46 30 -75t76 -29t75.5 29.5t29.5 74.5q0 44 -30 73.5t-75 29.5q-46 0 -76 -29.5t-30 -73.5z" />
<glyph unicode="&#x2dc;" horiz-adv-x="1098" d="M142 1270q0 145 71.5 233t189.5 88q42 0 79 -15t62.5 -36t48 -42t45 -36t43.5 -15q87 0 88 138h187q0 -144 -71.5 -231t-189.5 -87q-42 0 -79 15t-62.5 36t-48 42t-45 36t-43.5 15q-86 0 -88 -141h-187z" />
<glyph unicode="&#x400;" horiz-adv-x="1294" d="M185 0v1443h956v-258h-654v-337h617v-239h-617v-351h654v-258h-956zM222 1908h315l276 -318h-277z" />
<glyph unicode="&#x401;" horiz-adv-x="1294" d="M185 0v1443h956v-258h-654v-337h617v-239h-617v-351h654v-258h-956zM274 1731q0 66 43.5 108.5t111.5 42.5t111.5 -42.5t43.5 -108.5t-44 -109t-111 -43t-111 43t-44 109zM742 1731q0 66 44 108.5t111 42.5q68 0 112 -42.5t44 -108.5t-44 -109t-112 -43q-67 0 -111 43 t-44 109z" />
<glyph unicode="&#x402;" horiz-adv-x="1802" d="M102 1185v258h1168v-258h-433v-398h17q129 119 339 119q234 0 367 -133.5t133 -344.5q0 -227 -137 -363.5t-373 -136.5q-95 0 -146 17v244q39 -12 119 -12q109 0 171.5 61t62.5 170q0 107 -69.5 169.5t-187.5 62.5q-97 0 -178.5 -44t-117.5 -114v-482h-302v1185h-433z " />
<glyph unicode="&#x403;" horiz-adv-x="1225" d="M185 0v1443h930v-259h-627v-1184h-303zM477 1573l277 318h315l-314 -318h-278z" />
<glyph unicode="&#x404;" horiz-adv-x="1558" d="M121 722q0 353 184 555.5t501 202.5q260 0 438 -150t195 -380h-294q-22 119 -114.5 191.5t-224.5 72.5q-153 0 -253 -97.5t-117 -265.5h567v-241h-570q14 -173 115.5 -277t258.5 -104q133 0 225 68.5t114 181.5h294q-19 -228 -194 -372t-439 -144q-318 0 -502 203 t-184 556z" />
<glyph unicode="&#x405;" horiz-adv-x="1403" d="M120 401h292q10 -88 92 -140t210 -52q118 0 193 51.5t75 133.5q0 69 -58 112t-191 71l-188 40q-392 82 -392 412q0 204 151 327.5t401 123.5q238 0 391.5 -121t160.5 -314h-284q-11 86 -84 138t-182 52q-114 0 -182.5 -49t-68.5 -131q0 -67 55.5 -108t182.5 -68l174 -37 q217 -46 316 -144t99 -266q0 -218 -156.5 -343.5t-428.5 -125.5q-258 0 -414 118t-164 320z" />
<glyph unicode="&#x406;" horiz-adv-x="672" d="M185 0v1443h302v-1443h-302z" />
<glyph unicode="&#x407;" horiz-adv-x="672" d="M-53 1731q0 66 43.5 108.5t111.5 42.5t111.5 -42.5t43.5 -108.5t-44 -109t-111 -43t-111 43t-44 109zM185 0v1443h302v-1443h-302zM415 1731q0 66 44 108.5t111 42.5q68 0 112 -42.5t44 -108.5t-44 -109t-112 -43q-67 0 -111 43t-44 109z" />
<glyph unicode="&#x408;" horiz-adv-x="1251" d="M86 424h292q2 -87 54.5 -139t139.5 -52q93 0 142.5 55.5t49.5 161.5v993h302v-995q0 -232 -129.5 -358.5t-360.5 -126.5q-223 0 -356.5 125t-133.5 336z" />
<glyph unicode="&#x409;" horiz-adv-x="2256" d="M60 0v275q37 -8 67 -8q43 0 75.5 16.5t52.5 44t33.5 71t20 89t9.5 106.5l43 849h993v-479h279q229 0 372 -133t143 -349q0 -217 -138 -349.5t-361 -132.5h-597v1185h-421l-35 -612q-6 -110 -23 -198t-49.5 -162t-80.5 -123t-117 -76t-157 -27q-68 0 -109 13zM1354 249 h215q129 0 200 60.5t71 173.5q0 114 -71.5 174.5t-201.5 60.5h-213v-469z" />
<glyph unicode="&#x40a;" horiz-adv-x="2317" d="M185 0v1443h302v-571h620v571h302v-571h280q229 0 372 -118.5t143 -311.5q0 -199 -138.5 -320.5t-361.5 -121.5h-597v620h-620v-620h-302zM1409 249h230q124 0 192 50t68 143q0 89 -68.5 136.5t-192.5 47.5h-229v-377z" />
<glyph unicode="&#x40b;" horiz-adv-x="1829" d="M102 1185v258h1168v-258h-433v-397h17q128 118 330 118q161 0 274 -69t166.5 -185t53.5 -267v-385h-302v366q0 126 -64 200t-189 74q-62 0 -113.5 -16t-85 -43t-53.5 -50t-34 -49v-482h-302v1185h-433z" />
<glyph unicode="&#x40c;" horiz-adv-x="1473" d="M190 0v1443h302v-613h46l505 613h336l-586 -706l626 -737h-365l-514 591h-48v-591h-302zM572 1573l277 318h315l-314 -318h-278z" />
<glyph unicode="&#x40d;" horiz-adv-x="1629" d="M185 0v1443h301v-957h18l649 957h291v-1443h-301v956h-18l-649 -956h-291zM392 1908h315l276 -318h-277z" />
<glyph unicode="&#x40e;" horiz-adv-x="1420" d="M77 1443h321l310 -789h18l299 789h318l-442 -1030q-47 -109 -91.5 -182t-104.5 -131t-138 -85.5t-178 -27.5q-82 0 -124 14v255q27 -9 88 -9q69 0 118 23t85 78zM326 1915h218q2 -72 46 -114.5t113 -42.5q70 0 114.5 42.5t46.5 114.5h218q0 -147 -103.5 -234.5 t-275.5 -87.5q-171 0 -274 87.5t-103 234.5z" />
<glyph unicode="&#x40f;" horiz-adv-x="1609" d="M185 0v1443h302v-1185h635v1185h302v-1443h-478v-285h-283v285h-478z" />
<glyph unicode="&#x410;" horiz-adv-x="1520" d="M82 0l501 1443h355l501 -1443h-327l-109 344h-507l-111 -344h-303zM561 577h378l-179 566h-18z" />
<glyph unicode="&#x411;" horiz-adv-x="1392" d="M185 0v1443h959v-258h-657v-281h280q227 0 368.5 -123.5t141.5 -323.5q0 -205 -138.5 -331t-361.5 -126h-592zM487 249h215q127 0 196.5 53.5t69.5 154.5q0 102 -69.5 156t-197.5 54h-214v-418z" />
<glyph unicode="&#x412;" horiz-adv-x="1440" d="M185 0v1443h631q209 0 328 -96t119 -264q0 -115 -75 -203t-186 -105v-18q143 -11 236.5 -108t93.5 -236q0 -190 -134 -301.5t-365 -111.5h-648zM487 231h269q130 0 199 53.5t69 154.5q0 99 -70.5 150.5t-204.5 51.5h-262v-410zM487 845h227q122 0 187 48t65 135 t-59.5 135.5t-167.5 48.5h-252v-367z" />
<glyph unicode="&#x413;" horiz-adv-x="1225" d="M185 0v1443h930v-259h-627v-1184h-303z" />
<glyph unicode="&#x414;" horiz-adv-x="1606" d="M40 258h101q72 51 102 137t40 242l50 806h1023v-1185h180v-543h-273v285h-949v-285h-274v543zM470 258h584v928h-455l-38 -574q-8 -125 -28 -205t-63 -131v-18z" />
<glyph unicode="&#x415;" horiz-adv-x="1294" d="M185 0v1443h956v-258h-654v-337h617v-239h-617v-351h654v-258h-956z" />
<glyph unicode="&#x416;" horiz-adv-x="2160" d="M62 0l571 728l-538 715h331l455 -615h49v615h297v-615h48l455 615h328l-534 -709l575 -734h-358l-464 593h-50v-593h-297v593h-50l-464 -593h-354z" />
<glyph unicode="&#x417;" horiz-adv-x="1363" d="M107 413h289q7 -91 83 -144.5t200 -53.5q119 0 191.5 57.5t72.5 149.5q0 88 -71 138.5t-199 50.5h-194v242h191q107 0 172.5 54t65.5 142q0 87 -63.5 138t-175.5 51t-181 -55t-74 -148h-279q8 205 153.5 325t388.5 120q231 0 375.5 -108.5t144.5 -283.5 q0 -121 -74.5 -212t-192.5 -116v-18q145 -14 234 -106.5t89 -236.5q0 -191 -164 -313.5t-414 -122.5q-248 0 -403 123t-165 327z" />
<glyph unicode="&#x418;" horiz-adv-x="1629" d="M185 0v1443h301v-957h18l649 957h291v-1443h-301v956h-18l-649 -956h-291z" />
<glyph unicode="&#x419;" horiz-adv-x="1629" d="M185 0v1443h301v-957h18l649 957h291v-1443h-301v956h-18l-649 -956h-291zM437 1915h218q2 -72 46 -114.5t113 -42.5q70 0 114.5 42.5t46.5 114.5h218q0 -147 -103.5 -234.5t-275.5 -87.5q-171 0 -274 87.5t-103 234.5z" />
<glyph unicode="&#x41a;" horiz-adv-x="1475" d="M185 0v1443h302v-613h46l505 613h336l-586 -706l626 -737h-365l-514 591h-48v-591h-302z" />
<glyph unicode="&#x41b;" horiz-adv-x="1529" d="M50 0v275q37 -8 67 -8q43 0 75.5 16.5t52.5 44t33.5 71t20 89t9.5 106.5l43 849h993v-1443h-302v1185h-421l-35 -612q-6 -110 -23 -198t-49.5 -162t-80.5 -123t-117 -76t-157 -27q-68 0 -109 13z" />
<glyph unicode="&#x41c;" horiz-adv-x="1898" d="M185 0v1443h356l399 -970h18l400 970h355v-1443h-280v965h-16l-367 -882h-201l-368 882h-16v-965h-280z" />
<glyph unicode="&#x41d;" horiz-adv-x="1624" d="M185 0v1443h302v-582h650v582h302v-1443h-302v603h-650v-603h-302z" />
<glyph unicode="&#x41e;" horiz-adv-x="1630" d="M121 722q0 350 188 554t507 204q320 0 506.5 -204t186.5 -554q0 -351 -186.5 -555t-506.5 -204q-321 0 -508 204t-187 555zM430 722q0 -226 104.5 -360t281.5 -134q176 0 280.5 134t104.5 360t-104.5 359.5t-280.5 133.5t-281 -133.5t-105 -359.5z" />
<glyph unicode="&#x41f;" horiz-adv-x="1609" d="M185 0v1443h1239v-1443h-301v1184h-635v-1184h-303z" />
<glyph unicode="&#x420;" horiz-adv-x="1400" d="M185 0v1443h602q223 0 361.5 -137.5t138.5 -361.5q0 -222 -143 -359t-372 -137h-285v-448h-302zM487 693h219q131 0 202.5 64.5t71.5 185.5q0 122 -71 187t-202 65h-220v-502z" />
<glyph unicode="&#x421;" horiz-adv-x="1538" d="M121 722q0 352 181.5 555t495.5 203q256 0 432.5 -152.5t193.5 -388.5h-294q-22 125 -112.5 200t-219.5 75q-170 0 -269 -132t-99 -360t99 -360.5t270 -132.5q130 0 220 71t112 190h294q-19 -234 -192.5 -380.5t-434.5 -146.5q-314 0 -495.5 203.5t-181.5 555.5z" />
<glyph unicode="&#x422;" horiz-adv-x="1372" d="M102 1185v258h1168v-258h-433v-1185h-302v1185h-433z" />
<glyph unicode="&#x423;" horiz-adv-x="1420" d="M77 1443h321l310 -789h18l299 789h318l-442 -1030q-47 -109 -91.5 -182t-104.5 -131t-138 -85.5t-178 -27.5q-82 0 -124 14v255q27 -9 88 -9q69 0 118 23t85 78z" />
<glyph unicode="&#x424;" horiz-adv-x="1863" d="M119 724q0 273 181 431.5t482 168.5v150h299v-150q302 -9 482.5 -168t180.5 -433q0 -273 -181 -431t-482 -169v-154h-299v154q-302 10 -482.5 168.5t-180.5 432.5zM424 724q0 -156 98 -249t264 -101v700q-165 -8 -263.5 -101t-98.5 -249zM1078 374q164 8 262.5 100.5 t98.5 248.5q0 157 -98 250t-263 101v-700z" />
<glyph unicode="&#x425;" horiz-adv-x="1514" d="M98 0l461 727l-458 716h355l301 -505h18l304 505h338l-475 -721l468 -722h-344l-310 489h-18l-314 -489h-326z" />
<glyph unicode="&#x426;" horiz-adv-x="1674" d="M185 0v1443h302v-1185h635v1185h302v-1185h180v-543h-273v285h-1146z" />
<glyph unicode="&#x427;" horiz-adv-x="1524" d="M140 1029v414h302v-388q0 -139 78 -215.5t223 -76.5q95 0 171 30t123 77v573h302v-1443h-302v591h-18q-129 -97 -336 -97q-252 0 -397.5 147.5t-145.5 387.5z" />
<glyph unicode="&#x428;" horiz-adv-x="2096" d="M185 0v1443h302v-1185h410v1185h302v-1185h410v1185h302v-1443h-1726z" />
<glyph unicode="&#x429;" horiz-adv-x="2161" d="M185 0v1443h302v-1185h410v1185h302v-1185h410v1185h302v-1185h180v-543h-273v285h-1633z" />
<glyph unicode="&#x42a;" horiz-adv-x="1649" d="M109 1186v257h637v-479h280q229 0 372 -133t143 -349q0 -217 -138.5 -349.5t-361.5 -132.5h-597v1186h-335zM746 249h215q130 0 200.5 60.5t70.5 173.5q0 114 -71 174.5t-201 60.5h-214v-469z" />
<glyph unicode="&#x42b;" horiz-adv-x="1932" d="M185 0v1443h302v-479h280q229 0 372 -133t143 -349q0 -217 -138.5 -349.5t-361.5 -132.5h-597zM487 249h215q130 0 200.5 60.5t70.5 173.5q0 114 -71 174.5t-201 60.5h-214v-469zM1445 0v1443h302v-1443h-302z" />
<glyph unicode="&#x42c;" horiz-adv-x="1395" d="M185 0v1443h302v-479h280q229 0 372 -133t143 -349q0 -217 -138.5 -349.5t-361.5 -132.5h-597zM487 249h215q130 0 200.5 60.5t70.5 173.5q0 114 -71 174.5t-201 60.5h-214v-469z" />
<glyph unicode="&#x42d;" horiz-adv-x="1544" d="M104 479h294q22 -112 116.5 -181t230.5 -69q154 0 253.5 102.5t113.5 278.5h-571v241h570q-17 170 -115.5 266.5t-249.5 96.5q-135 0 -230 -72.5t-117 -191.5h-294q17 230 197 380t443 150q315 0 496.5 -202t181.5 -555q0 -354 -182 -557t-497 -203q-267 0 -444 144 t-196 372z" />
<glyph unicode="&#x42e;" horiz-adv-x="2180" d="M185 0v1443h302v-582h213q35 289 214.5 454t461.5 165q315 0 499 -204t184 -554q0 -351 -183.5 -555t-499.5 -204q-289 0 -468.5 170.5t-209.5 469.5h-211v-603h-302zM998 722q0 -226 102 -360t275 -134q172 0 274 134t102 360t-102 359.5t-274 133.5t-274.5 -133.5 t-102.5 -359.5z" />
<glyph unicode="&#x42f;" horiz-adv-x="1451" d="M88 0l379 561q-142 45 -226.5 154.5t-84.5 258.5q0 211 142 340t382 129h586v-1443h-299v518h-202l-343 -518h-334zM465 973q0 -106 68 -165.5t190 -59.5h244v450h-245q-120 0 -188.5 -60t-68.5 -165z" />
<glyph unicode="&#x430;" horiz-adv-x="1228" d="M97 315q0 149 110.5 234.5t316.5 97.5l267 16v90q0 69 -48 106.5t-138 37.5q-162 0 -199 -102h-268q14 153 144.5 242.5t338.5 89.5q218 0 337.5 -98t119.5 -276v-753h-282v144h-18q-43 -76 -128 -118.5t-192 -42.5q-160 0 -260.5 91t-100.5 241zM382 334 q0 -61 47.5 -96.5t124.5 -35.5q101 0 169 57t68 141v81l-223 -14q-186 -13 -186 -133z" />
<glyph unicode="&#x431;" horiz-adv-x="1309" d="M107 634q0 424 143.5 626t449.5 213l141 5q76 3 148 14t105.5 19.5t35.5 10.5v-235q-9 -5 -27 -12t-88 -19.5t-156 -15.5l-134 -4q-101 -4 -172.5 -29.5t-116 -76t-68.5 -116.5t-36 -161h18q108 211 369 211q218 0 351 -142t133 -383q0 -261 -146 -412t-397 -151 q-265 0 -409 166.5t-144 491.5zM406 531q0 -152 65 -234.5t184 -82.5q118 0 183.5 82.5t65.5 234.5q0 145 -65.5 226t-183.5 81t-183.5 -81t-65.5 -226z" />
<glyph unicode="&#x432;" horiz-adv-x="1232" d="M156 0v1103h551q171 0 267.5 -74t96.5 -204q0 -86 -56.5 -153t-141.5 -80v-18q110 -10 178.5 -81.5t68.5 -173.5q0 -145 -108.5 -232t-294.5 -87h-561zM442 192h203q89 0 136 37.5t47 108.5t-51 107.5t-147 36.5h-188v-290zM442 657h172q85 0 128.5 33.5t43.5 94.5 q0 59 -40 92.5t-116 33.5h-188v-254z" />
<glyph unicode="&#x433;" horiz-adv-x="1009" d="M156 0v1103h763v-229h-472v-874h-291z" />
<glyph unicode="&#x434;" horiz-adv-x="1366" d="M37 229h85q104 58 122 321l36 553h873v-874h166v-514h-266v285h-750v-285h-266v514zM424 229h439v646h-336l-25 -345q-13 -184 -78 -283v-18z" />
<glyph unicode="&#x435;" horiz-adv-x="1251" d="M102 546q0 269 142 425t388 156q244 0 380.5 -147t136.5 -410v-89h-757v-15q3 -123 70.5 -194.5t181.5 -71.5q86 0 144 29.5t81 84.5h271q-33 -157 -167.5 -247.5t-336.5 -90.5q-252 0 -393 150.5t-141 419.5zM393 667h470q-5 110 -66.5 173.5t-163.5 63.5 q-101 0 -166.5 -65t-73.5 -172z" />
<glyph unicode="&#x436;" horiz-adv-x="1796" d="M56 0l408 598l-387 505h325l299 -434h54v434h284v-434h55l299 434h323l-385 -503l409 -600h-339l-304 462h-58v-462h-284v462h-58l-304 -462h-337z" />
<glyph unicode="&#x437;" horiz-adv-x="1179" d="M95 351h280q16 -71 71.5 -105.5t140.5 -34.5q89 0 141 34.5t52 97.5q0 124 -192 124h-155v196h147q168 0 168 116q0 53 -42.5 86.5t-125.5 33.5q-80 0 -130.5 -34t-60.5 -96h-275q16 165 137.5 261.5t327.5 96.5q216 0 334.5 -82.5t118.5 -231.5q0 -82 -46 -140t-122 -79 v-18q102 -26 154.5 -90.5t52.5 -154.5q0 -162 -129.5 -258.5t-354.5 -96.5q-95 0 -177 21t-151 64t-112.5 117t-51.5 173z" />
<glyph unicode="&#x438;" horiz-adv-x="1342" d="M156 0v1103h286v-678h18l440 678h286v-1103h-286v686h-18l-440 -686h-286z" />
<glyph unicode="&#x439;" horiz-adv-x="1342" d="M156 0v1103h286v-678h18l440 678h286v-1103h-286v686h-18l-440 -686h-286zM279 1616h218q2 -81 46 -132.5t116 -51.5t116.5 51.5t46.5 132.5h218q0 -155 -105 -252.5t-276 -97.5t-275.5 97t-104.5 253z" />
<glyph unicode="&#x43a;" horiz-adv-x="1237" d="M156 0v1103h291v-430h48l333 430h331l-423 -503l445 -600h-347l-335 457h-52v-457h-291z" />
<glyph unicode="&#x43b;" horiz-adv-x="1271" d="M43 0v256q28 -7 63 -7q39 0 66.5 22t44 64.5t25 93.5t12.5 121l32 553h830v-1103h-291v874h-289l-23 -344q-7 -129 -29 -224t-65 -169.5t-113.5 -112t-169.5 -37.5q-54 0 -93 13z" />
<glyph unicode="&#x43c;" horiz-adv-x="1658" d="M156 0v1103h377l289 -706h18l290 706h372v-1103h-274v731h-19l-279 -669h-203l-279 669h-18v-731h-274z" />
<glyph unicode="&#x43d;" horiz-adv-x="1329" d="M156 0v1103h291v-423h436v423h291v-1103h-291v451h-436v-451h-291z" />
<glyph unicode="&#x43e;" horiz-adv-x="1289" d="M102 552q0 268 145.5 421.5t397.5 153.5t397.5 -153.5t145.5 -421.5q0 -270 -144.5 -423t-398.5 -153t-398.5 153t-144.5 423zM401 552q0 -161 63.5 -249.5t180.5 -88.5q116 0 180 88.5t64 249.5q0 159 -64.5 248t-179.5 89q-116 0 -180 -89t-64 -248z" />
<glyph unicode="&#x43f;" horiz-adv-x="1319" d="M156 0v1103h1008v-1103h-291v874h-426v-874h-291z" />
<glyph unicode="&#x440;" horiz-adv-x="1346" d="M156 -366v1469h282v-181h18q45 93 134 146t203 53q210 0 330 -151t120 -418q0 -266 -119 -417.5t-326 -151.5q-118 0 -205 49t-128 137h-18v-535h-291zM444 551q0 -151 67 -238t183 -87q118 0 184 86.5t66 239.5q0 152 -66.5 238.5t-182.5 86.5t-183.5 -87.5 t-67.5 -238.5z" />
<glyph unicode="&#x441;" horiz-adv-x="1223" d="M102 554q0 275 140 424t399 149q216 0 344.5 -111t146.5 -302h-272q-15 81 -71.5 127.5t-147.5 46.5q-118 0 -181.5 -86t-63.5 -248q0 -164 63.5 -251.5t181.5 -87.5q90 0 146.5 43t72.5 124h272q-18 -187 -148 -296.5t-343 -109.5q-258 0 -398.5 150.5t-140.5 427.5z " />
<glyph unicode="&#x442;" horiz-adv-x="1091" d="M70 874v229h951v-229h-330v-874h-291v874h-330z" />
<glyph unicode="&#x443;" horiz-adv-x="1243" d="M66 1103h321l232 -836h18l232 836h308l-380 -1120q-70 -212 -183.5 -298t-320.5 -86q-93 0 -111 3v234q10 -2 66 -2q83 0 130 28.5t65 90.5l10 40z" />
<glyph unicode="&#x444;" horiz-adv-x="1677" d="M102 552q0 256 161 408.5t432 158.5v338h287v-338q273 -6 433 -157t160 -411q0 -256 -161 -408.5t-432 -158.5v-350h-287v350q-273 6 -433 157t-160 411zM398 552q0 -157 80.5 -246t219.5 -94v679q-138 -4 -219 -94t-81 -245zM979 212q138 4 219 94.5t81 245.5 q0 156 -80.5 245t-219.5 94v-679z" />
<glyph unicode="&#x445;" horiz-adv-x="1210" d="M74 1103h334l195 -362h18l195 362h318l-346 -545l349 -558h-324l-205 360h-18l-205 -360h-309l346 545z" />
<glyph unicode="&#x446;" horiz-adv-x="1372" d="M156 0v1103h291v-874h421v874h291v-874h166v-514h-266v285h-903z" />
<glyph unicode="&#x447;" horiz-adv-x="1276" d="M133 763v340h291v-308q0 -91 53 -143.5t148 -52.5q125 0 205 74v430h291v-1103h-291v441h-18q-105 -93 -261 -93q-191 0 -304.5 114t-113.5 301z" />
<glyph unicode="&#x448;" horiz-adv-x="1816" d="M156 0v1103h291v-874h316v874h291v-874h316v874h291v-1103h-1505z" />
<glyph unicode="&#x449;" horiz-adv-x="1868" d="M156 0v1103h291v-874h316v874h291v-874h316v874h291v-874h159v-514h-266v285h-1398z" />
<glyph unicode="&#x44a;" horiz-adv-x="1385" d="M70 874v229h576v-318h219q195 0 310.5 -106.5t115.5 -286.5t-115.5 -286t-310.5 -106h-510v874h-285zM646 229h173q83 0 133 45.5t50 119.5t-50 119.5t-133 45.5h-173v-330z" />
<glyph unicode="&#x44b;" horiz-adv-x="1661" d="M156 0v1103h291v-318h219q195 0 310.5 -106.5t115.5 -286.5t-115.5 -286t-310.5 -106h-510zM447 229h173q83 0 132.5 45.5t49.5 119.5t-50 119.5t-132 45.5h-173v-330zM1214 0v1103h291v-1103h-291z" />
<glyph unicode="&#x44c;" horiz-adv-x="1185" d="M156 0v1103h291v-318h219q195 0 310.5 -106.5t115.5 -286.5t-115.5 -286t-310.5 -106h-510zM447 229h173q83 0 132.5 45.5t49.5 119.5t-50 119.5t-132 45.5h-173v-330z" />
<glyph unicode="&#x44d;" horiz-adv-x="1235" d="M95 377h273q16 -77 75.5 -119t149.5 -42q103 0 170 67t75 183h-406v196h403q-11 105 -77.5 165.5t-164.5 60.5q-89 0 -148 -44.5t-76 -118.5h-273q21 180 153.5 291t344.5 111q248 0 394 -154.5t146 -418.5q0 -268 -146 -423t-396 -155q-215 0 -346 109t-151 292z" />
<glyph unicode="&#x44e;" horiz-adv-x="1784" d="M156 0v1103h291v-423h165q33 211 172 329t356 118q249 0 393.5 -153t144.5 -422q0 -272 -143.5 -424t-394.5 -152q-226 0 -366.5 124.5t-165.5 350.5h-161v-451h-291zM898 552q0 -161 63.5 -249.5t177.5 -88.5t177 88.5t63 249.5q0 160 -63.5 248.5t-176.5 88.5t-177 -89 t-64 -248z" />
<glyph unicode="&#x44f;" horiz-adv-x="1210" d="M75 0l289 403q-110 33 -174 118.5t-64 199.5q0 174 119.5 278t314.5 104h494v-1103h-285v355h-119l-245 -355h-330zM412 718q0 -67 49 -109t129 -42h179v308h-179q-81 0 -129.5 -43t-48.5 -114z" />
<glyph unicode="&#x450;" horiz-adv-x="1251" d="M102 546q0 269 142 425t388 156q244 0 380.5 -147t136.5 -410v-89h-757v-15q3 -123 70.5 -194.5t181.5 -71.5q86 0 144 29.5t81 84.5h271q-33 -157 -167.5 -247.5t-336.5 -90.5q-252 0 -393 150.5t-141 419.5zM235 1634h309l247 -353h-269zM393 667h470 q-5 110 -66.5 173.5t-163.5 63.5q-101 0 -166.5 -65t-73.5 -172z" />
<glyph unicode="&#x451;" horiz-adv-x="1251" d="M102 546q0 269 142 425t388 156q244 0 380.5 -147t136.5 -410v-89h-757v-15q3 -123 70.5 -194.5t181.5 -71.5q86 0 144 29.5t81 84.5h271q-33 -157 -167.5 -247.5t-336.5 -90.5q-252 0 -393 150.5t-141 419.5zM243 1403q0 66 43.5 108.5t111.5 42.5t111.5 -42.5 t43.5 -108.5t-44 -109t-111 -43t-111 43t-44 109zM393 667h470q-5 110 -66.5 173.5t-163.5 63.5q-101 0 -166.5 -65t-73.5 -172zM711 1403q0 66 44 108.5t111 42.5q68 0 112 -42.5t44 -108.5t-44 -109t-112 -43q-67 0 -111 43t-44 109z" />
<glyph unicode="&#x452;" horiz-adv-x="1337" d="M22 1255v153h144v116h286v-116h233v-153h-233v-333h18q38 95 129 148.5t212 53.5q179 0 282 -108.5t103 -305.5v-731q0 -168 -99 -254t-291 -86q-60 0 -78 3v224q6 -2 37 -2q76 0 108 29t32 96v652q0 114 -55 173t-156 59q-109 0 -173 -66t-64 -174v-633h-291v1255h-144z " />
<glyph unicode="&#x453;" horiz-adv-x="1009" d="M156 0v1103h763v-229h-472v-874h-291zM352 1281l247 353h309l-287 -353h-269z" />
<glyph unicode="&#x454;" horiz-adv-x="1227" d="M102 554q0 265 145.5 419t394.5 154q211 0 342 -111t151 -291h-272q-17 74 -74 118.5t-145 44.5q-98 0 -164 -60t-79 -165h398v-196h-401q7 -117 74.5 -184t171.5 -67q88 0 146 42t74 119h272q-19 -183 -149 -292t-343 -109q-251 0 -396.5 155t-145.5 423z" />
<glyph unicode="&#x455;" horiz-adv-x="1181" d="M105 307h284q35 -118 209 -118q85 0 138 32.5t53 85.5q0 41 -33 66.5t-106 41.5l-200 45q-161 35 -239.5 113.5t-78.5 205.5q0 157 126.5 252.5t332.5 95.5q210 0 329.5 -85t131.5 -243h-269q-11 54 -60.5 84.5t-129.5 30.5q-79 0 -130 -32.5t-51 -84.5q0 -40 36 -66.5 t113 -43.5l207 -45q161 -35 235.5 -107t74.5 -195q0 -164 -134 -264t-352 -100t-345 86t-142 245z" />
<glyph unicode="&#x456;" horiz-adv-x="606" d="M132 1404q0 66 47 106.5t125 40.5t125 -40.5t47 -106.5q0 -65 -47.5 -106t-124.5 -41q-78 0 -125 41t-47 106zM158 0v1103h291v-1103h-291z" />
<glyph unicode="&#x457;" horiz-adv-x="606" d="M-62 1410q0 66 44 108.5t112 42.5t111.5 -42.5t43.5 -108.5t-44 -109t-111 -43q-68 0 -112 43t-44 109zM158 0v1103h291v-1103h-291zM357 1410q0 66 44 108.5t111 42.5q68 0 112 -42.5t44 -108.5t-44 -109t-112 -43q-67 0 -111 43t-44 109z" />
<glyph unicode="&#x458;" horiz-adv-x="607" d="M-18 -149q6 -1 37 -1q76 0 108 29t32 95v1129h291v-1137q0 -169 -99 -255.5t-291 -86.5q-54 0 -78 4v223zM133 1404q0 66 47 106.5t125 40.5t125 -40.5t47 -106.5q0 -65 -47.5 -106t-124.5 -41q-78 0 -125 41t-47 106z" />
<glyph unicode="&#x459;" horiz-adv-x="1859" d="M48 0v256q28 -7 63 -7q39 0 66.5 22t44 64.5t25 93.5t12.5 121l32 553h830v-318h219q195 0 310.5 -106.5t115.5 -286.5t-115.5 -286t-310.5 -106h-510v874h-289l-23 -344q-7 -129 -29 -224t-65 -169.5t-113.5 -112t-169.5 -37.5q-54 0 -93 13zM1121 229h173 q83 0 132.5 45.5t49.5 119.5t-50 119.5t-132 45.5h-173v-330z" />
<glyph unicode="&#x45a;" horiz-adv-x="1897" d="M156 0v1103h291v-392h421v392h291v-387h224q193 0 307 -97t114 -261t-114 -261t-307 -97h-515v487h-421v-487h-291zM1159 224h191q76 0 122 37.5t46 96.5t-46 96.5t-122 37.5h-191v-268z" />
<glyph unicode="&#x45b;" horiz-adv-x="1337" d="M22 1255v153h144v116h286v-116h233v-153h-233v-333h18q39 95 125.5 148.5t207.5 53.5q179 0 278.5 -108t99.5 -306v-710h-291v641q0 114 -52 173t-151 59q-108 0 -169 -65.5t-61 -174.5v-633h-291v1255h-144z" />
<glyph unicode="&#x45c;" horiz-adv-x="1237" d="M156 0v1103h291v-430h48l333 430h331l-423 -503l445 -600h-347l-335 457h-52v-457h-291zM467 1281l247 353h309l-287 -353h-269z" />
<glyph unicode="&#x45d;" horiz-adv-x="1342" d="M156 0v1103h286v-678h18l440 678h286v-1103h-286v686h-18l-440 -686h-286zM280 1634h309l247 -353h-269z" />
<glyph unicode="&#x45e;" horiz-adv-x="1243" d="M66 1103h321l232 -836h18l232 836h308l-380 -1120q-70 -212 -183.5 -298t-320.5 -86q-93 0 -111 3v234q10 -2 66 -2q83 0 130 28.5t65 90.5l10 40zM247 1616h218q2 -81 46 -132.5t116 -51.5t116.5 51.5t46.5 132.5h218q0 -155 -105 -252.5t-276 -97.5t-275.5 97 t-104.5 253z" />
<glyph unicode="&#x45f;" horiz-adv-x="1319" d="M156 0v1103h291v-874h426v874h291v-1103h-371v-285h-266v285h-371z" />
<glyph unicode="&#x462;" horiz-adv-x="1563" d="M18 1138v222h335v164h302v-164h404v-222h-404v-196h285q227 0 368.5 -130t141.5 -341q0 -212 -137 -341.5t-358 -129.5h-602v1138h-335zM655 249h220q127 0 196.5 57.5t69.5 165.5t-70 166t-197 58h-219v-447z" />
<glyph unicode="&#x463;" horiz-adv-x="1308" d="M17 942v161h262v421h291v-421h400v-161h-400v-157h219q195 0 310.5 -106.5t115.5 -286.5t-115.5 -286t-310.5 -106h-510v942h-262zM570 229h173q83 0 132.5 45.5t49.5 119.5t-50 119.5t-132 45.5h-173v-330z" />
<glyph unicode="&#x472;" horiz-adv-x="1630" d="M121 722q0 350 188 554t507 204q320 0 506.5 -204t186.5 -554q0 -351 -186.5 -555t-506.5 -204q-321 0 -508 204t-187 555zM433 825q71 59 172 59q76 0 150.5 -22t143.5 -44t130 -22q111 0 164 58q-29 170 -128.5 267t-248.5 97q-156 0 -258 -105t-125 -288zM436 597 q28 -174 128 -273t252 -99q157 0 258.5 108t123.5 294q-73 -61 -181 -61q-77 0 -152 22t-142.5 44t-125.5 22q-110 0 -161 -57z" />
<glyph unicode="&#x473;" horiz-adv-x="1289" d="M102 552q0 268 145.5 421.5t397.5 153.5t397.5 -153.5t145.5 -421.5q0 -270 -144.5 -423t-398.5 -153t-398.5 153t-144.5 423zM401 618q51 48 125 48q59 1 137 -24.5t128 -25.5q67 0 93 31q-17 117 -79 181t-160 64q-104 0 -167.5 -72t-76.5 -202zM407 443 q20 -111 81 -171.5t157 -60.5q100 0 162 65.5t78 186.5q-46 -38 -121 -38q-58 0 -136.5 26.5t-125.5 26.5q-67 0 -95 -35z" />
<glyph unicode="&#x474;" horiz-adv-x="1680" d="M72 1443h341l328 -1103h18l227 739q33 127 72.5 203.5t95.5 119.5q77 59 200 59q58 0 122 -16.5t109 -44.5l-82 -249q-47 19 -91 19q-46 0 -73 -26q-32 -30 -63 -117l-351 -1027h-365z" />
<glyph unicode="&#x475;" horiz-adv-x="1279" d="M56 1103h313l228 -810h18l144 491q28 114 64 181.5t87 106.5q73 55 180 55q53 0 112 -14.5t102 -39.5l-75 -224q-43 18 -84 18q-39 0 -66 -26q-26 -25 -56 -105l-256 -736h-328z" />
<glyph unicode="&#x48a;" horiz-adv-x="1675" d="M185 0v1443h301v-957h18l649 957h291v-1185h179v-64l-120 -479h-267l80 285h-173v258v698h-18l-649 -956h-291zM437 1915h218q2 -72 46 -114.5t113 -42.5q70 0 114.5 42.5t46.5 114.5h218q0 -147 -103.5 -234.5t-275.5 -87.5q-171 0 -274 87.5t-103 234.5z" />
<glyph unicode="&#x48b;" horiz-adv-x="1423" d="M156 0v1103h286v-678h18l440 678h286v-874h183v-65l-109 -449h-266l76 285h-170v229v457h-18l-440 -686h-286zM279 1616h218q2 -81 46 -132.5t116 -51.5t116.5 51.5t46.5 132.5h218q0 -155 -105 -252.5t-276 -97.5t-275.5 97t-104.5 253z" />
<glyph unicode="&#x48c;" horiz-adv-x="1563" d="M18 1138v222h335v164h302v-164h404v-222h-404v-196h285q227 0 368.5 -130t141.5 -341q0 -212 -137 -341.5t-358 -129.5h-602v1138h-335zM655 249h220q127 0 196.5 57.5t69.5 165.5t-70 166t-197 58h-219v-447z" />
<glyph unicode="&#x48d;" horiz-adv-x="1308" d="M17 942v161h262v421h291v-421h400v-161h-400v-157h219q195 0 310.5 -106.5t115.5 -286.5t-115.5 -286t-310.5 -106h-510v942h-262zM570 229h173q83 0 132.5 45.5t49.5 119.5t-50 119.5t-132 45.5h-173v-330z" />
<glyph unicode="&#x48e;" horiz-adv-x="1400" d="M185 0v1443h602q223 0 361.5 -137.5t138.5 -361.5q0 -126 -54 -229t-152 -169l126 -191l-185 -130l-151 237q-63 -12 -135 -12h-249v-450h-302zM487 690h219q17 0 43 2l-108 169l145 94l129 -196q68 65 68 184q0 122 -72 187t-204 65h-220v-505z" />
<glyph unicode="&#x48f;" horiz-adv-x="1346" d="M156 -366v1469h282v-181h18q45 93 134 146t202 53q210 0 330 -151t120 -418q0 -159 -45 -280t-129 -193l104 -158l-186 -129l-124 195q-44 -4 -67 -4q-117 0 -203 49t-127 137h-18v-535h-291zM443 551q1 -152 68 -239.5t183 -87.5q22 0 41 3l-126 197l145 95l130 -200 q59 87 59 233q0 152 -66 238.5t-183 86.5q-116 0 -183 -87.5t-68 -238.5z" />
<glyph unicode="&#x490;" horiz-adv-x="1225" d="M185 0v1443h657v285h273v-544h-627v-1184h-303z" />
<glyph unicode="&#x491;" horiz-adv-x="1009" d="M156 0v1103h497v285h266v-514h-472v-874h-291z" />
<glyph unicode="&#x492;" horiz-adv-x="1269" d="M102 594v217h127v632h930v-259h-627v-373h418v-217h-418v-594h-303v594h-127z" />
<glyph unicode="&#x493;" horiz-adv-x="1059" d="M45 454v162h161v487h763v-229h-472v-258h291v-162h-291v-454h-291v454h-161z" />
<glyph unicode="&#x494;" horiz-adv-x="1452" d="M185 0v1443h905v-258h-603v-398h17q129 119 339 119q234 0 367 -133.5t133 -344.5q0 -227 -137 -363.5t-373 -136.5q-95 0 -146 17v244q39 -12 119 -12q109 0 171.5 61t62.5 170q0 107 -69.5 169.5t-187.5 62.5q-97 0 -178.5 -44t-117.5 -114v-482h-302z" />
<glyph unicode="&#x495;" horiz-adv-x="1268" d="M156 0v1103h788v-229h-497v-338h15q119 104 279 104q208 0 331 -130t123 -338q0 -232 -133 -366t-357 -134q-99 0 -147 17v231q45 -10 114 -10q107 0 168 62.5t61 177.5q0 102 -60 167t-157 65q-84 0 -144.5 -38.5t-92.5 -100.5v-243h-291z" />
<glyph unicode="&#x496;" horiz-adv-x="2190" d="M62 0l571 728l-538 715h331l455 -615h49v615h297v-615h48l455 615h328l-534 -709l373 -476h222v-543h-274v285h-99h-5l-464 593h-50v-593h-297v593h-50l-464 -593h-354z" />
<glyph unicode="&#x497;" horiz-adv-x="1828" d="M56 0l408 598l-387 505h325l299 -434h54v434h284v-434h55l299 434h323l-385 -503l253 -371h194v-514h-268v285h-109l-304 462h-58v-462h-284v462h-58l-304 -462h-337z" />
<glyph unicode="&#x498;" horiz-adv-x="1363" d="M107 413h289q7 -91 83 -144.5t200 -53.5q119 0 191.5 57.5t72.5 149.5q0 88 -71 138.5t-199 50.5h-194v242h191q107 0 172.5 54t65.5 142q0 87 -63.5 138t-175.5 51t-181 -55t-74 -148h-279q8 205 153.5 325t388.5 120q231 0 375.5 -108.5t144.5 -283.5 q0 -121 -74.5 -212t-192.5 -116v-18q145 -14 234 -106.5t89 -236.5q0 -161 -118.5 -275t-311.5 -148v-261h-273v257q-197 30 -316 147.5t-127 293.5z" />
<glyph unicode="&#x499;" horiz-adv-x="1179" d="M95 351h280q16 -71 71.5 -105.5t140.5 -34.5q89 0 141 34.5t52 97.5q0 124 -192 124h-155v196h147q168 0 168 116q0 53 -42.5 86.5t-125.5 33.5q-80 0 -130.5 -34t-60.5 -96h-275q16 165 137.5 261.5t327.5 96.5q216 0 334.5 -82.5t118.5 -231.5q0 -82 -46 -140t-122 -79 v-18q102 -26 154.5 -90.5t52.5 -154.5q0 -135 -91.5 -226t-256.5 -118v-272h-268v272q-152 27 -249 116.5t-111 247.5z" />
<glyph unicode="&#x49a;" horiz-adv-x="1506" d="M185 0v1443h302v-613h46l505 613h336l-586 -706l407 -479h239v-543h-273v285h-105h-7l-514 591h-48v-591h-302z" />
<glyph unicode="&#x49b;" horiz-adv-x="1272" d="M156 0v1103h291v-430h48l333 430h331l-423 -503l274 -370h212v-515h-268v285h-114h-6l-335 457h-52v-457h-291z" />
<glyph unicode="&#x49c;" horiz-adv-x="1590" d="M185 0v1443h302v-618h108v303h185v-303h30l363 618h312l-412 -706l456 -737h-345l-373 596h-31v-286h-185v286h-108v-596h-302z" />
<glyph unicode="&#x49d;" horiz-adv-x="1427" d="M156 0v1103h291v-430h104v249h180v-249h29l268 430h316l-336 -503l358 -600h-332l-270 457h-33v-253h-180v253h-104v-457h-291z" />
<glyph unicode="&#x49e;" horiz-adv-x="1490" d="M29 1098v216h156v129h302v-129h211v-216h-211v-268h66l500 613h336l-581 -706l621 -737h-365l-509 591h-68v-591h-302v1098h-156z" />
<glyph unicode="&#x49f;" horiz-adv-x="1250" d="M12 1255v153h144v116h291v-116h228v-153h-228v-583h18l369 431h331l-420 -473l449 -630h-345l-322 448l-80 -82v-366h-291v1255h-144z" />
<glyph unicode="&#x4a0;" horiz-adv-x="2025" d="M107 1186v257h628h302v-257v-356h46l505 613h336l-586 -706l626 -737h-365l-514 591h-48v-591h-302v1186h-628z" />
<glyph unicode="&#x4a1;" horiz-adv-x="1624" d="M70 874v229h473h291v-229v-201h48l333 430h331l-423 -503l445 -600h-347l-335 457h-52v-457h-291v874h-473z" />
<glyph unicode="&#x4a2;" horiz-adv-x="1689" d="M185 0v1443h302v-582h650v582h302v-1185h180v-543h-273v285h-209v258v345h-650v-603h-302z" />
<glyph unicode="&#x4a3;" horiz-adv-x="1387" d="M156 0v1103h291v-423h436v423h291v-874h166v-514h-269v285h-188v229v222h-436v-451h-291z" />
<glyph unicode="&#x4a4;" horiz-adv-x="2177" d="M185 0v1443h302v-582h650v325v257h302h628v-257h-628v-1186h-302v603h-650v-603h-302z" />
<glyph unicode="&#x4a5;" horiz-adv-x="1731" d="M156 0v1103h291v-423h436v194v229h291h472v-229h-472v-874h-291v451h-436v-451h-291z" />
<glyph unicode="&#x4a6;" horiz-adv-x="2333" d="M185 0v1443h1184v-656h17q128 119 339 119q227 0 363 -130t136 -348q0 -229 -138 -364.5t-371 -135.5q-97 0 -146 17v244q44 -12 118 -12q110 0 172 61.5t62 169.5q0 107 -69 169.5t-187 62.5q-97 0 -178.5 -43.5t-117.5 -114.5v-482h-301v1184h-580v-1184h-303z" />
<glyph unicode="&#x4a7;" horiz-adv-x="1980" d="M156 0v1103h1003v-567h15q119 104 279 104q208 0 331 -130t123 -338q0 -232 -133 -366t-357 -134q-99 0 -147 17v231q45 -10 114 -10q107 0 168 62.5t61 177.5q0 102 -60 167t-157 65q-84 0 -144.5 -38.5t-92.5 -100.5v-243h-291v874h-421v-874h-291z" />
<glyph unicode="&#x4a8;" horiz-adv-x="2044" d="M121 748q0 299 186 505t486 234v-278q-172 -36 -269.5 -163.5t-97.5 -302.5q0 -226 146.5 -372.5t370.5 -146.5q60 0 119 8q-116 101 -177.5 237.5t-61.5 295.5q0 233 139.5 384.5t365.5 151.5q230 0 368.5 -140.5t138.5 -373.5q0 -159 -70.5 -309t-187.5 -254 q53 -7 92 -7q119 0 224 66l96 -224q-143 -96 -323 -96q-192 0 -350 91q-165 -89 -375 -89q-184 0 -338 57.5t-259.5 160.5t-164 248t-58.5 317zM1114 775q0 -131 55 -247.5t156 -194.5q101 75 159 194.5t58 254.5q0 116 -58.5 189.5t-154.5 73.5q-103 0 -159 -74.5 t-56 -195.5z" />
<glyph unicode="&#x4a9;" horiz-adv-x="1782" d="M102 567q0 156 66 284t190.5 208t287.5 91v-251q-123 -22 -191 -111.5t-68 -219.5q0 -167 114.5 -270t296.5 -103q46 0 89 7q-91 76 -144.5 186t-53.5 246q0 201 129.5 325t339.5 124q209 0 338.5 -122.5t129.5 -311.5q0 -138 -64.5 -259t-179.5 -195q37 -5 69 -5 q110 0 191 50l80 -195q-123 -74 -280 -74q-178 0 -323 84q-147 -84 -360 -84q-301 0 -479 163t-178 433zM975 630q0 -97 46 -188.5t128 -148.5q91 52 141.5 144.5t50.5 198.5q0 94 -50.5 153t-132.5 59q-84 0 -133.5 -58.5t-49.5 -159.5z" />
<glyph unicode="&#x4aa;" horiz-adv-x="1548" d="M121 722q0 352 181.5 555t495.5 203q256 0 432.5 -152.5t193.5 -388.5h-294q-22 125 -112.5 200t-219.5 75q-170 0 -269 -132t-99 -360t99 -360.5t270 -132.5q130 0 220 71t112 190h294q-17 -215 -166.5 -357.5t-379.5 -165.5l-31 -74q95 -5 145.5 -50.5t50.5 -126.5 q0 -97 -70 -151t-197 -54q-86 0 -147 18v134q42 -14 116 -14q112 0 112 59q0 30 -30.5 43t-99.5 13h-60v116l38 88q-274 30 -429.5 229.5t-155.5 524.5z" />
<glyph unicode="&#x4ab;" horiz-adv-x="1223" d="M97 554q0 275 140 424t399 149q216 0 344.5 -111t146.5 -302h-272q-15 81 -71.5 127.5t-147.5 46.5q-118 0 -181.5 -86t-63.5 -248q0 -164 63.5 -251.5t181.5 -87.5q90 0 146.5 43t72.5 124h272q-16 -167 -122 -273t-282 -128l-37 -88q95 -5 145.5 -50.5t50.5 -126.5 q0 -97 -70 -151t-197 -54q-86 0 -147 18v134q42 -14 116 -14q112 0 112 59q0 30 -30.5 43t-99.5 13h-60v116l44 101q-218 24 -335.5 172t-117.5 401z" />
<glyph unicode="&#x4ac;" horiz-adv-x="1372" d="M102 1185v258h1168v-258h-433v-927h180v-543h-273v285h-209v258v927h-433z" />
<glyph unicode="&#x4ad;" horiz-adv-x="1091" d="M70 874v229h951v-229h-330v-645h166v-514h-268v285h-189v229v645h-330z" />
<glyph unicode="&#x4ae;" horiz-adv-x="1451" d="M72 1443h327l318 -604h18l317 604h327l-502 -912v-531h-302v531z" />
<glyph unicode="&#x4af;" horiz-adv-x="1204" d="M56 1103h313l228 -756h18l226 756h307l-399 -1097v-372h-288v371z" />
<glyph unicode="&#x4b0;" horiz-adv-x="1451" d="M72 1443h327l318 -604h18l317 604h327l-436 -792h284v-205h-350v-446h-302v446h-350v205h284z" />
<glyph unicode="&#x4b1;" horiz-adv-x="1204" d="M56 1103h313l228 -756h18l226 756h307l-399 -1097v-6h211v-153h-211v-213h-288v213h-211v153h211v5z" />
<glyph unicode="&#x4b2;" horiz-adv-x="1548" d="M98 0l461 727l-458 716h355l301 -505h18l304 505h338l-475 -721l301 -464h212v-543h-273v285h-116l-310 489h-18l-314 -489h-326z" />
<glyph unicode="&#x4b3;" horiz-adv-x="1237" d="M74 1103h334l195 -362h18l195 362h318l-346 -545l206 -329h183v-514h-268v285h-96l-205 360h-18l-205 -360h-309l346 545z" />
<glyph unicode="&#x4b4;" horiz-adv-x="2024" d="M102 1185v258h418h302h413v-258h-413v-927h645v1185h302v-1185h180v-543h-274v285h-1155v1185h-418z" />
<glyph unicode="&#x4b5;" horiz-adv-x="1597" d="M70 874v229h310h291h277v-229h-277v-645h421v874h291v-874h166v-514h-266v285h-903v874h-310z" />
<glyph unicode="&#x4b6;" horiz-adv-x="1590" d="M140 1029v414h302v-388q0 -139 78 -215.5t223 -76.5q95 0 171 30t123 77v573h302v-1185h180v-543h-273v285h-209v258v333h-18q-129 -97 -336 -97q-252 0 -397.5 147.5t-145.5 387.5z" />
<glyph unicode="&#x4b7;" horiz-adv-x="1334" d="M133 763v340h291v-308q0 -91 53 -143.5t148 -52.5q125 0 205 74v430h291v-874h166v-514h-269v285h-184h-4v441h-18q-105 -93 -261 -93q-191 0 -304.5 114t-113.5 301z" />
<glyph unicode="&#x4b8;" horiz-adv-x="1544" d="M140 1029v414h302v-388q0 -242 216 -284v288h201v-286q128 25 198 97v573h302v-1443h-302v591h-18q-73 -54 -180 -79v-232h-201v215q-239 10 -378.5 157t-139.5 377z" />
<glyph unicode="&#x4b9;" horiz-adv-x="1316" d="M133 763v340h291v-313q0 -146 124 -184v278h190v-278q80 20 132 67v430h291v-1103h-291v447h-18q-45 -40 -114 -65v-212h-190v183q-188 6 -301.5 118.5t-113.5 291.5z" />
<glyph unicode="&#x4ba;" horiz-adv-x="1541" d="M185 0v1443h302v-590h18q143 118 358 118q233 0 377 -141.5t144 -379.5v-450h-302v410q0 139 -76.5 216t-211.5 77q-106 0 -187.5 -42.5t-119.5 -117.5v-543h-302z" />
<glyph unicode="&#x4bb;" horiz-adv-x="1322" d="M156 0v1524h286v-602h18q39 95 125.5 148.5t207.5 53.5q179 0 278.5 -108t99.5 -306v-710h-291v641q0 114 -52 173t-151 59q-108 0 -169 -65.5t-61 -174.5v-633h-291z" />
<glyph unicode="&#x4bc;" horiz-adv-x="1832" d="M35 991q0 47 8.5 89.5t17.5 61.5l9 19h242q-29 -63 -29 -131q0 -61 35.5 -96.5t103.5 -37.5q45 271 217 427.5t433 156.5q304 0 476.5 -189t172.5 -523l-2 -108h-995v-29q-1 -184 100.5 -295.5t269.5 -111.5q118 0 199 50t113 145h301q-35 -202 -205 -329t-409 -127 q-303 0 -485 185.5t-199 511.5q-176 4 -275 95.5t-99 235.5zM729 887h674q-10 154 -101 243t-235 89q-134 0 -226.5 -90t-111.5 -242z" />
<glyph unicode="&#x4bd;" horiz-adv-x="1560" d="M61 778q0 47 11.5 92.5t22.5 66.5h218q-28 -76 -28 -136q0 -126 136 -126q33 213 170 332.5t351 119.5q244 0 380.5 -147t136.5 -410v-89h-757v-15q3 -123 70.5 -194.5t181.5 -71.5q86 0 144 29.5t81 84.5h271q-33 -157 -167.5 -247.5t-336.5 -90.5q-234 0 -373 130.5 t-158 366.5q-169 1 -261.5 81.5t-92.5 223.5zM703 667h470q-5 110 -66.5 173.5t-163.5 63.5q-101 0 -166.5 -65t-73.5 -172z" />
<glyph unicode="&#x4be;" horiz-adv-x="1832" d="M35 991q0 47 8.5 89.5t17.5 61.5l9 19h242q-29 -63 -29 -131q0 -61 35.5 -96.5t103.5 -37.5q45 271 217 427.5t433 156.5q304 0 476.5 -189t172.5 -523l-2 -108h-995v-29q-1 -184 100.5 -295.5t269.5 -111.5q118 0 199 50t113 145h301q-31 -174 -163 -294t-326 -152v-258 h-273v261q-239 43 -380.5 222t-155.5 462q-176 4 -275 95.5t-99 235.5zM729 887h674q-10 154 -101 243t-235 89q-134 0 -226.5 -90t-111.5 -242z" />
<glyph unicode="&#x4bf;" horiz-adv-x="1560" d="M61 778q0 47 11.5 92.5t22.5 66.5h218q-28 -76 -28 -136q0 -126 136 -126q33 213 170 332.5t351 119.5q244 0 380.5 -147t136.5 -410v-89h-757v-15q3 -123 70.5 -194.5t181.5 -71.5q86 0 144 29.5t81 84.5h271q-28 -131 -128.5 -217t-254.5 -112v-241h-267v247 q-170 38 -269.5 162.5t-115.5 319.5q-169 1 -261.5 81.5t-92.5 223.5zM703 667h470q-5 110 -66.5 173.5t-163.5 63.5q-101 0 -166.5 -65t-73.5 -172z" />
<glyph unicode="&#x4c0;" horiz-adv-x="672" d="M185 0v1443h302v-1443h-302z" />
<glyph unicode="&#x4c1;" horiz-adv-x="2160" d="M62 0l571 728l-538 715h331l455 -615h49v615h297v-615h48l455 615h328l-534 -709l575 -734h-358l-464 593h-50v-593h-297v593h-50l-464 -593h-354zM677 1915h208q2 -75 53.5 -119.5t138.5 -44.5t138.5 44.5t53.5 119.5h208q0 -150 -108.5 -243t-291.5 -93t-291.5 93 t-108.5 243z" />
<glyph unicode="&#x4c2;" horiz-adv-x="1796" d="M56 0l408 598l-387 505h325l299 -434h54v434h284v-434h55l299 434h323l-385 -503l409 -600h-339l-304 462h-58v-462h-284v462h-58l-304 -462h-337zM507 1602h218q2 -81 46 -132.5t116 -51.5t116.5 51.5t46.5 132.5h218q0 -155 -105 -252.5t-276 -97.5t-275.5 97 t-104.5 253z" />
<glyph unicode="&#x4c3;" horiz-adv-x="1435" d="M185 0v1443h302v-613h26h20l505 613h336l-548 -662h-1q222 -61 352.5 -220.5t130.5 -367.5q0 -265 -163.5 -439t-420.5 -174q-80 0 -122 11v248q34 -6 83 -6q144 0 231 100.5t87 251.5q0 174 -133.5 281t-355.5 107h-27v-573h-302z" />
<glyph unicode="&#x4c4;" horiz-adv-x="1233" d="M156 0v1103h291v-433h48l333 433h331l-392 -471v-15q170 -55 270 -183.5t100 -300.5q0 -239 -136.5 -378t-365.5 -139q-72 0 -118 11v232q35 -7 83 -7q116 0 181 74t65 201q0 141 -100.5 228t-268.5 87h-30v-442h-291z" />
<glyph unicode="&#x4c5;" horiz-adv-x="1573" d="M50 0v275q37 -8 67 -8q43 0 75.5 16.5t52.5 44t33.5 71t20 89t9.5 106.5l43 849h993v-1185h178v-64l-120 -479h-267l80 285h-173v258v927h-421l-35 -612q-6 -110 -23 -198t-49.5 -162t-80.5 -123t-117 -76t-157 -27q-68 0 -109 13z" />
<glyph unicode="&#x4c6;" horiz-adv-x="1347" d="M43 0v256q28 -7 63 -7q39 0 66.5 22t44 64.5t25 93.5t12.5 121l32 553h830v-874h177v-65l-109 -449h-265l76 285h-170v229v645h-289l-23 -344q-7 -129 -29 -224t-65 -169.5t-113.5 -112t-169.5 -37.5q-54 0 -93 13z" />
<glyph unicode="&#x4c7;" horiz-adv-x="1624" d="M185 0v1443h302v-582h650v582h302v-1084v-359v-20q0 -171 -101.5 -257t-299.5 -86q-60 0 -78 3v226q6 -2 37 -2q76 0 108 29t32 96v11v359v244h-650v-603h-302z" />
<glyph unicode="&#x4c8;" horiz-adv-x="1329" d="M156 0v1103h291v-423h436v423h291v-743v-360v-20q0 -168 -99.5 -254.5t-291.5 -86.5q-59 0 -77 3v224q6 -2 36 -2q77 0 109 29t32 96v11v360v91h-436v-451h-291z" />
<glyph unicode="&#x4c9;" horiz-adv-x="1674" d="M185 0v1443h302v-582h650v582h302v-1185h180v-64l-121 -479h-266l79 285h-172h-2v603h-650v-603h-302z" />
<glyph unicode="&#x4ca;" horiz-adv-x="1405" d="M156 0v1103h291v-423h436v423h291v-874h177v-65l-109 -449h-265l76 285h-170v229v222h-436v-451h-291z" />
<glyph unicode="&#x4cb;" horiz-adv-x="1524" d="M140 1029v414h302v-388q0 -139 78 -215.5t223 -76.5q95 0 171 30t123 77v573h302v-1185v-258h-208v-285h-274v543h180v333h-18q-129 -97 -336 -97q-252 0 -397.5 147.5t-145.5 387.5z" />
<glyph unicode="&#x4cc;" horiz-adv-x="1276" d="M133 772v331h291v-286q0 -95 49.5 -148t134.5 -53t139.5 33t82.5 76v378h291v-874v-229h-189v-285h-268v514h166v254h-18q-103 -119 -295 -119q-175 0 -279.5 110t-104.5 298z" />
<glyph unicode="&#x4cd;" horiz-adv-x="1965" d="M185 0v1443h356l399 -970h18l400 970h355v-1185h201v-64l-121 -479h-266l79 285h-172h-1v965h-16l-367 -882h-201l-368 882h-16v-965h-280z" />
<glyph unicode="&#x4ce;" horiz-adv-x="1751" d="M156 0v1103h377l289 -706h18l290 706h372v-874h195v-65l-109 -449h-266l76 285h-170v229v502h-19l-279 -669h-203l-279 669h-18v-731h-274z" />
<glyph unicode="&#x4cf;" horiz-adv-x="639" d="M174 0v1524h291v-1524h-291z" />
<glyph unicode="&#x4d0;" horiz-adv-x="1520" d="M82 0l501 1443h355l501 -1443h-327l-109 344h-507l-111 -344h-303zM367 1915h218q2 -72 46 -114.5t113 -42.5q70 0 114.5 42.5t46.5 114.5h218q0 -147 -103.5 -234.5t-275.5 -87.5q-171 0 -274 87.5t-103 234.5zM561 577h378l-179 566h-18z" />
<glyph unicode="&#x4d1;" horiz-adv-x="1228" d="M97 315q0 149 110.5 234.5t316.5 97.5l267 16v90q0 69 -48 106.5t-138 37.5q-162 0 -199 -102h-268q14 153 144.5 242.5t338.5 89.5q218 0 337.5 -98t119.5 -276v-753h-282v144h-18q-43 -76 -128 -118.5t-192 -42.5q-160 0 -260.5 91t-100.5 241zM236 1602h218 q2 -81 46 -132.5t116 -51.5t116.5 51.5t46.5 132.5h218q0 -155 -105 -252.5t-276 -97.5t-275.5 97t-104.5 253zM382 334q0 -61 47.5 -96.5t124.5 -35.5q101 0 169 57t68 141v81l-223 -14q-186 -13 -186 -133z" />
<glyph unicode="&#x4d2;" horiz-adv-x="1520" d="M82 0l501 1443h355l501 -1443h-327l-109 344h-507l-111 -344h-303zM371 1731q0 66 43.5 108.5t111.5 42.5t111.5 -42.5t43.5 -108.5t-44 -109t-111 -43t-111 43t-44 109zM561 577h378l-179 566h-18zM839 1731q0 66 44 108.5t111 42.5q68 0 112 -42.5t44 -108.5t-44 -109 t-112 -43q-67 0 -111 43t-44 109z" />
<glyph unicode="&#x4d3;" horiz-adv-x="1228" d="M97 315q0 149 110.5 234.5t316.5 97.5l267 16v90q0 69 -48 106.5t-138 37.5q-162 0 -199 -102h-268q14 153 144.5 242.5t338.5 89.5q218 0 337.5 -98t119.5 -276v-753h-282v144h-18q-43 -76 -128 -118.5t-192 -42.5q-160 0 -260.5 91t-100.5 241zM232 1403 q0 66 43.5 108.5t111.5 42.5t111.5 -42.5t43.5 -108.5t-44 -109t-111 -43t-111 43t-44 109zM382 334q0 -61 47.5 -96.5t124.5 -35.5q101 0 169 57t68 141v81l-223 -14q-186 -13 -186 -133zM700 1403q0 66 44 108.5t111 42.5q68 0 112 -42.5t44 -108.5t-44 -109t-112 -43 q-67 0 -111 43t-44 109z" />
<glyph unicode="&#x4d4;" horiz-adv-x="2079" d="M82 0l595 1443h1250v-258h-651v-341h614v-239h-614v-347h651v-258h-927v364h-465l-154 -364h-299zM622 598h378v604h-129z" />
<glyph unicode="&#x4d5;" horiz-adv-x="1913" d="M96 315q0 149 110.5 234.5t316.5 97.5l267 16v73q0 80 -49.5 120.5t-136.5 40.5q-162 0 -199 -102h-268q13 146 139 239t313 93q251 0 357 -158h18q58 72 151.5 115t204.5 43q228 0 360 -148t132 -401v-94h-747v-26q4 -117 74 -187.5t182 -70.5q155 0 212 114h269 q-33 -156 -161 -247t-317 -91q-130 0 -235 53.5t-156 144.5h-18q-64 -93 -169.5 -145.5t-237.5 -52.5q-187 0 -299.5 94t-112.5 245zM381 332q0 -62 48.5 -97.5t128.5 -35.5q103 0 167.5 58t64.5 140v84l-223 -14q-186 -13 -186 -135zM1065 669h462q-4 105 -66.5 170 t-158.5 65q-102 0 -166.5 -64.5t-70.5 -170.5z" />
<glyph unicode="&#x4d6;" horiz-adv-x="1294" d="M185 0v1443h956v-258h-654v-337h617v-239h-617v-351h654v-258h-956zM288 1915h218q2 -72 46 -114.5t113 -42.5q70 0 114.5 42.5t46.5 114.5h218q0 -147 -103.5 -234.5t-275.5 -87.5q-171 0 -274 87.5t-103 234.5z" />
<glyph unicode="&#x4d7;" horiz-adv-x="1251" d="M102 546q0 269 142 425t388 156q244 0 380.5 -147t136.5 -410v-89h-757v-15q3 -123 70.5 -194.5t181.5 -71.5q86 0 144 29.5t81 84.5h271q-33 -157 -167.5 -247.5t-336.5 -90.5q-252 0 -393 150.5t-141 419.5zM252 1602h218q2 -81 46 -132.5t116 -51.5t116.5 51.5 t46.5 132.5h218q0 -155 -105 -252.5t-276 -97.5t-275.5 97t-104.5 253zM393 667h470q-5 110 -66.5 173.5t-163.5 63.5q-101 0 -166.5 -65t-73.5 -172z" />
<glyph unicode="&#x4d8;" horiz-adv-x="1551" d="M111 688l3 109h999v16q1 177 -100.5 291.5t-260.5 114.5q-237 0 -319 -195h-306q55 213 222.5 334.5t403.5 121.5q308 0 492.5 -207t184.5 -553q0 -225 -82.5 -397t-232.5 -266t-345 -94q-307 0 -482 197.5t-177 527.5zM429 570q13 -159 105 -252.5t238 -93.5 q136 0 229 94.5t109 251.5h-681z" />
<glyph unicode="&#x4d9;" horiz-adv-x="1251" d="M99 561l3 67h757v10q0 122 -68.5 194t-182.5 72q-169 0 -225 -115h-270q38 155 171.5 246.5t329.5 91.5q248 0 391.5 -152t143.5 -414q0 -274 -140.5 -429.5t-389.5 -155.5q-248 0 -384 153t-136 432zM386 442q2 -112 65 -177t168 -65q102 0 167.5 66t71.5 176h-472z" />
<glyph unicode="&#x4da;" horiz-adv-x="1556" d="M111 688l3 109h999v16q1 177 -100.5 291.5t-260.5 114.5q-237 0 -319 -195h-306q55 213 222.5 334.5t403.5 121.5q308 0 492.5 -207t184.5 -553q0 -225 -82.5 -397t-232.5 -266t-345 -94q-307 0 -482 197.5t-177 527.5zM366 1733q0 66 43.5 108.5t111.5 42.5t111.5 -42.5 t43.5 -108.5t-44 -109t-111 -43t-111 43t-44 109zM429 570q13 -159 105 -252.5t238 -93.5q136 0 229 94.5t109 251.5h-681zM834 1733q0 66 44 108.5t111 42.5q68 0 112 -42.5t44 -108.5t-44 -109t-112 -43q-67 0 -111 43t-44 109z" />
<glyph unicode="&#x4db;" horiz-adv-x="1251" d="M99 561l3 67h757v10q0 122 -68.5 194t-182.5 72q-169 0 -225 -115h-270q38 155 171.5 246.5t329.5 91.5q248 0 391.5 -152t143.5 -414q0 -274 -140.5 -429.5t-389.5 -155.5q-248 0 -384 153t-136 432zM222 1419q0 66 43.5 108.5t111.5 42.5t111.5 -42.5t43.5 -108.5 t-44 -109t-111 -43t-111 43t-44 109zM386 442q2 -112 65 -177t168 -65q102 0 167.5 66t71.5 176h-472zM690 1419q0 66 44 108.5t111 42.5q68 0 112 -42.5t44 -108.5t-44 -109t-112 -43q-67 0 -111 43t-44 109z" />
<glyph unicode="&#x4dc;" horiz-adv-x="2160" d="M62 0l571 728l-538 715h331l455 -615h49v615h297v-615h48l455 615h328l-534 -709l575 -734h-358l-464 593h-50v-593h-297v593h-50l-464 -593h-354zM688 1731q0 66 43.5 108.5t111.5 42.5t111.5 -42.5t43.5 -108.5t-44 -109t-111 -43t-111 43t-44 109zM1156 1731 q0 66 44 108.5t111 42.5q68 0 112 -42.5t44 -108.5t-44 -109t-112 -43q-67 0 -111 43t-44 109z" />
<glyph unicode="&#x4dd;" horiz-adv-x="1796" d="M56 0l408 598l-387 505h325l299 -434h54v434h284v-434h55l299 434h323l-385 -503l409 -600h-339l-304 462h-58v-462h-284v462h-58l-304 -462h-337zM503 1419q0 66 43.5 108.5t111.5 42.5t111.5 -42.5t43.5 -108.5t-44 -109t-111 -43t-111 43t-44 109zM971 1419 q0 66 44 108.5t111 42.5q68 0 112 -42.5t44 -108.5t-44 -109t-112 -43q-67 0 -111 43t-44 109z" />
<glyph unicode="&#x4de;" horiz-adv-x="1363" d="M107 413h289q7 -91 83 -144.5t200 -53.5q119 0 191.5 57.5t72.5 149.5q0 88 -71 138.5t-199 50.5h-194v242h191q107 0 172.5 54t65.5 142q0 87 -63.5 138t-175.5 51t-181 -55t-74 -148h-279q8 205 153.5 325t388.5 120q231 0 375.5 -108.5t144.5 -283.5 q0 -121 -74.5 -212t-192.5 -116v-18q145 -14 234 -106.5t89 -236.5q0 -191 -164 -313.5t-414 -122.5q-248 0 -403 123t-165 327zM290 1731q0 66 43.5 108.5t111.5 42.5t111.5 -42.5t43.5 -108.5t-44 -109t-111 -43t-111 43t-44 109zM758 1731q0 66 44 108.5t111 42.5 q68 0 112 -42.5t44 -108.5t-44 -109t-112 -43q-67 0 -111 43t-44 109z" />
<glyph unicode="&#x4df;" horiz-adv-x="1179" d="M95 351h280q16 -71 71.5 -105.5t140.5 -34.5q89 0 141 34.5t52 97.5q0 124 -192 124h-155v196h147q168 0 168 116q0 53 -42.5 86.5t-125.5 33.5q-80 0 -130.5 -34t-60.5 -96h-275q16 165 137.5 261.5t327.5 96.5q216 0 334.5 -82.5t118.5 -231.5q0 -82 -46 -140t-122 -79 v-18q102 -26 154.5 -90.5t52.5 -154.5q0 -162 -129.5 -258.5t-354.5 -96.5q-95 0 -177 21t-151 64t-112.5 117t-51.5 173zM199 1419q0 66 43.5 108.5t111.5 42.5t111.5 -42.5t43.5 -108.5t-44 -109t-111 -43t-111 43t-44 109zM667 1419q0 66 44 108.5t111 42.5 q68 0 112 -42.5t44 -108.5t-44 -109t-112 -43q-67 0 -111 43t-44 109z" />
<glyph unicode="&#x4e0;" horiz-adv-x="1314" d="M96 413h289q7 -92 79 -145.5t188 -53.5t186 58.5t70 156.5q0 112 -82 169.5t-239 57.5h-159v218l343 293v18h-619v258h1012v-203l-413 -360v-18q215 -15 340 -127.5t125 -305.5q0 -209 -156 -337.5t-411 -128.5q-241 0 -392 123t-161 327z" />
<glyph unicode="&#x4e1;" horiz-adv-x="1210" d="M84 52h284q8 -91 68 -145t152 -54q107 0 164.5 61t57.5 169q0 113 -82 175.5t-232 62.5h-133v236l307 296v18h-523v232h887v-192l-361 -352v-18q209 -32 322 -149.5t113 -303.5q0 -212 -143 -343t-377 -131q-219 0 -356.5 120t-147.5 318z" />
<glyph unicode="&#x4e2;" horiz-adv-x="1629" d="M185 0v1443h301v-957h18l649 957h291v-1443h-301v956h-18l-649 -956h-291zM457 1632v181h746v-181h-746z" />
<glyph unicode="&#x4e3;" horiz-adv-x="1342" d="M156 0v1103h286v-678h18l440 678h286v-1103h-286v686h-18l-440 -686h-286zM297 1316v180h735v-180h-735z" />
<glyph unicode="&#x4e4;" horiz-adv-x="1629" d="M185 0v1443h301v-957h18l649 957h291v-1443h-301v956h-18l-649 -956h-291zM447 1731q0 66 43.5 108.5t111.5 42.5t111.5 -42.5t43.5 -108.5t-44 -109t-111 -43t-111 43t-44 109zM915 1731q0 66 44 108.5t111 42.5q68 0 112 -42.5t44 -108.5t-44 -109t-112 -43 q-67 0 -111 43t-44 109z" />
<glyph unicode="&#x4e5;" horiz-adv-x="1342" d="M156 0v1103h286v-678h18l440 678h286v-1103h-286v686h-18l-440 -686h-286zM293 1403q0 66 43.5 108.5t111.5 42.5t111.5 -42.5t43.5 -108.5t-44 -109t-111 -43t-111 43t-44 109zM761 1403q0 66 44 108.5t111 42.5q68 0 112 -42.5t44 -108.5t-44 -109t-112 -43 q-67 0 -111 43t-44 109z" />
<glyph unicode="&#x4e6;" horiz-adv-x="1630" d="M121 722q0 350 188 554t507 204q320 0 506.5 -204t186.5 -554q0 -351 -186.5 -555t-506.5 -204q-321 0 -508 204t-187 555zM427 1731q0 66 43.5 108.5t111.5 42.5t111.5 -42.5t43.5 -108.5t-44 -109t-111 -43t-111 43t-44 109zM430 722q0 -226 104.5 -360t281.5 -134 q176 0 280.5 134t104.5 360t-104.5 359.5t-280.5 133.5t-281 -133.5t-105 -359.5zM895 1731q0 66 44 108.5t111 42.5q68 0 112 -42.5t44 -108.5t-44 -109t-112 -43q-67 0 -111 43t-44 109z" />
<glyph unicode="&#x4e7;" horiz-adv-x="1289" d="M102 552q0 268 145.5 421.5t397.5 153.5t397.5 -153.5t145.5 -421.5q0 -270 -144.5 -423t-398.5 -153t-398.5 153t-144.5 423zM256 1403q0 66 43.5 108.5t111.5 42.5t111.5 -42.5t43.5 -108.5t-44 -109t-111 -43t-111 43t-44 109zM401 552q0 -161 63.5 -249.5 t180.5 -88.5q116 0 180 88.5t64 249.5q0 159 -64.5 248t-179.5 89q-116 0 -180 -89t-64 -248zM724 1403q0 66 44 108.5t111 42.5q68 0 112 -42.5t44 -108.5t-44 -109t-112 -43q-67 0 -111 43t-44 109z" />
<glyph unicode="&#x4e8;" horiz-adv-x="1630" d="M121 722q0 350 188 554t507 204q320 0 506.5 -204t186.5 -554q0 -351 -186.5 -555t-506.5 -204q-321 0 -508 204t-187 555zM434 613q24 -180 125 -284t257 -104q154 0 255 104t125 284h-762zM437 851h756q-28 172 -128 269.5t-249 97.5q-150 0 -250 -97.5t-129 -269.5z " />
<glyph unicode="&#x4e9;" horiz-adv-x="1289" d="M102 552q0 268 145.5 421.5t397.5 153.5t397.5 -153.5t145.5 -421.5q0 -270 -144.5 -423t-398.5 -153t-398.5 153t-144.5 423zM404 464q16 -122 78 -187.5t163 -65.5q100 0 162 65.5t78 187.5h-481zM405 651h479q-19 116 -80.5 179t-158.5 63q-98 0 -159.5 -63 t-80.5 -179z" />
<glyph unicode="&#x4ea;" horiz-adv-x="1630" d="M121 722q0 350 188 554t507 204q320 0 506.5 -204t186.5 -554q0 -351 -186.5 -555t-506.5 -204q-321 0 -508 204t-187 555zM421 1731q0 66 43.5 108.5t111.5 42.5t111.5 -42.5t43.5 -108.5t-44 -109t-111 -43t-111 43t-44 109zM434 613q24 -180 125 -284t257 -104 q154 0 255 104t125 284h-762zM437 851h756q-28 172 -128 269.5t-249 97.5q-150 0 -250 -97.5t-129 -269.5zM889 1731q0 66 44 108.5t111 42.5q68 0 112 -42.5t44 -108.5t-44 -109t-112 -43q-67 0 -111 43t-44 109z" />
<glyph unicode="&#x4eb;" horiz-adv-x="1289" d="M102 552q0 268 145.5 421.5t397.5 153.5t397.5 -153.5t145.5 -421.5q0 -270 -144.5 -423t-398.5 -153t-398.5 153t-144.5 423zM255 1419q0 66 43.5 108.5t111.5 42.5t111.5 -42.5t43.5 -108.5t-44 -109t-111 -43t-111 43t-44 109zM404 464q16 -122 78 -187.5t163 -65.5 q100 0 162 65.5t78 187.5h-481zM405 651h479q-19 116 -80.5 179t-158.5 63q-98 0 -159.5 -63t-80.5 -179zM723 1419q0 66 44 108.5t111 42.5q68 0 112 -42.5t44 -108.5t-44 -109t-112 -43q-67 0 -111 43t-44 109z" />
<glyph unicode="&#x4ec;" horiz-adv-x="1544" d="M104 479h294q22 -112 116.5 -181t230.5 -69q154 0 253.5 102.5t113.5 278.5h-571v241h570q-17 170 -115.5 266.5t-249.5 96.5q-135 0 -230 -72.5t-117 -191.5h-294q17 230 197 380t443 150q315 0 496.5 -202t181.5 -555q0 -354 -182 -557t-497 -203q-267 0 -444 144 t-196 372zM350 1731q0 66 43.5 108.5t111.5 42.5t111.5 -42.5t43.5 -108.5t-44 -109t-111 -43t-111 43t-44 109zM818 1731q0 66 44 108.5t111 42.5q68 0 112 -42.5t44 -108.5t-44 -109t-112 -43q-67 0 -111 43t-44 109z" />
<glyph unicode="&#x4ed;" horiz-adv-x="1235" d="M95 377h273q16 -77 75.5 -119t149.5 -42q103 0 170 67t75 183h-406v196h403q-11 105 -77.5 165.5t-164.5 60.5q-89 0 -148 -44.5t-76 -118.5h-273q21 180 153.5 291t344.5 111q248 0 394 -154.5t146 -418.5q0 -268 -146 -423t-396 -155q-215 0 -346 109t-151 292z M213 1419q0 66 43.5 108.5t111.5 42.5t111.5 -42.5t43.5 -108.5t-44 -109t-111 -43t-111 43t-44 109zM681 1419q0 66 44 108.5t111 42.5q68 0 112 -42.5t44 -108.5t-44 -109t-112 -43q-67 0 -111 43t-44 109z" />
<glyph unicode="&#x4ee;" horiz-adv-x="1420" d="M77 1443h321l310 -789h18l299 789h318l-442 -1030q-47 -109 -91.5 -182t-104.5 -131t-138 -85.5t-178 -27.5q-82 0 -124 14v255q27 -9 88 -9q69 0 118 23t85 78zM357 1632v181h746v-181h-746z" />
<glyph unicode="&#x4ef;" horiz-adv-x="1243" d="M66 1103h321l232 -836h18l232 836h308l-380 -1120q-70 -212 -183.5 -298t-320.5 -86q-93 0 -111 3v234q10 -2 66 -2q83 0 130 28.5t65 90.5l10 40zM257 1316v180h735v-180h-735z" />
<glyph unicode="&#x4f0;" horiz-adv-x="1420" d="M77 1443h321l310 -789h18l299 789h318l-442 -1030q-47 -109 -91.5 -182t-104.5 -131t-138 -85.5t-178 -27.5q-82 0 -124 14v255q27 -9 88 -9q69 0 118 23t85 78zM332 1731q0 66 43.5 108.5t111.5 42.5t111.5 -42.5t43.5 -108.5t-44 -109t-111 -43t-111 43t-44 109z M800 1731q0 66 44 108.5t111 42.5q68 0 112 -42.5t44 -108.5t-44 -109t-112 -43q-67 0 -111 43t-44 109z" />
<glyph unicode="&#x4f1;" horiz-adv-x="1243" d="M66 1103h321l232 -836h18l232 836h308l-380 -1120q-70 -212 -183.5 -298t-320.5 -86q-93 0 -111 3v234q10 -2 66 -2q83 0 130 28.5t65 90.5l10 40zM259 1419q0 66 43.5 108.5t111.5 42.5t111.5 -42.5t43.5 -108.5t-44 -109t-111 -43t-111 43t-44 109zM727 1419 q0 66 44 108.5t111 42.5q68 0 112 -42.5t44 -108.5t-44 -109t-112 -43q-67 0 -111 43t-44 109z" />
<glyph unicode="&#x4f2;" horiz-adv-x="1420" d="M77 1443h321l310 -789h18l299 789h318l-442 -1030q-47 -109 -91.5 -182t-104.5 -131t-138 -85.5t-178 -27.5q-82 0 -124 14v255q27 -9 88 -9q69 0 118 23t85 78zM357 1590l251 318h271l-278 -318h-244zM794 1590l252 318h270l-278 -318h-244z" />
<glyph unicode="&#x4f3;" horiz-adv-x="1243" d="M66 1103h321l232 -836h18l232 836h308l-380 -1120q-70 -212 -183.5 -298t-320.5 -86q-93 0 -111 3v234q10 -2 66 -2q83 0 130 28.5t65 90.5l10 40zM272 1281l212 353h259l-242 -353h-229zM708 1281l212 353h259l-242 -353h-229z" />
<glyph unicode="&#x4f4;" horiz-adv-x="1524" d="M140 1029v414h302v-388q0 -139 78 -215.5t223 -76.5q95 0 171 30t123 77v573h302v-1443h-302v591h-18q-129 -97 -336 -97q-252 0 -397.5 147.5t-145.5 387.5zM351 1731q0 66 43.5 108.5t111.5 42.5t111.5 -42.5t43.5 -108.5t-44 -109t-111 -43t-111 43t-44 109zM819 1731 q0 66 44 108.5t111 42.5q68 0 112 -42.5t44 -108.5t-44 -109t-112 -43q-67 0 -111 43t-44 109z" />
<glyph unicode="&#x4f5;" horiz-adv-x="1276" d="M133 763v340h291v-308q0 -91 53 -143.5t148 -52.5q125 0 205 74v430h291v-1103h-291v441h-18q-105 -93 -261 -93q-191 0 -304.5 114t-113.5 301zM246 1419q0 66 43.5 108.5t111.5 42.5t111.5 -42.5t43.5 -108.5t-44 -109t-111 -43t-111 43t-44 109zM714 1419 q0 66 44 108.5t111 42.5q68 0 112 -42.5t44 -108.5t-44 -109t-112 -43q-67 0 -111 43t-44 109z" />
<glyph unicode="&#x4f6;" horiz-adv-x="1225" d="M185 0v258v1185h930v-259h-627v-926h180v-543h-274v285h-209z" />
<glyph unicode="&#x4f7;" horiz-adv-x="1009" d="M156 0v229v874h763v-229h-472v-645h166v-514h-269v285h-188z" />
<glyph unicode="&#x4f8;" horiz-adv-x="1932" d="M185 0v1443h302v-479h280q229 0 372 -133t143 -349q0 -217 -138.5 -349.5t-361.5 -132.5h-597zM487 249h215q130 0 200.5 60.5t70.5 173.5q0 114 -71 174.5t-201 60.5h-214v-469zM566 1731q0 66 43.5 108.5t111.5 42.5t111.5 -42.5t43.5 -108.5t-44 -109t-111 -43 t-111 43t-44 109zM1034 1731q0 66 44 108.5t111 42.5q68 0 112 -42.5t44 -108.5t-44 -109t-112 -43q-67 0 -111 43t-44 109zM1445 0v1443h302v-1443h-302z" />
<glyph unicode="&#x4f9;" horiz-adv-x="1661" d="M156 0v1103h291v-318h219q195 0 310.5 -106.5t115.5 -286.5t-115.5 -286t-310.5 -106h-510zM417 1403q0 66 43.5 108.5t111.5 42.5t111.5 -42.5t43.5 -108.5t-44 -109t-111 -43t-111 43t-44 109zM447 229h173q83 0 132.5 45.5t49.5 119.5t-50 119.5t-132 45.5h-173v-330z M885 1403q0 66 44 108.5t111 42.5q68 0 112 -42.5t44 -108.5t-44 -109t-112 -43q-67 0 -111 43t-44 109zM1214 0v1103h291v-1103h-291z" />
<glyph unicode="&#x4fa;" horiz-adv-x="1265" d="M55 -134q6 -2 37 -2q76 0 108 29t32 96v11v359v235h-127v217h127v632h930v-259h-627v-373h418v-217h-418v-235v-359v-20q0 -170 -103 -256.5t-299 -86.5q-60 0 -78 3v226z" />
<glyph unicode="&#x4fb;" horiz-adv-x="1067" d="M37 -134q6 -2 36 -2q77 0 109 29t32 96v11v325v129h-161v162h161v487h763v-229h-472v-258h291v-162h-291v-129v-325v-24q0 -167 -99.5 -252t-291.5 -85q-59 0 -77 3v224z" />
<glyph unicode="&#x4fc;" horiz-adv-x="1514" d="M98 0l461 727l-458 716h355l301 -505h18l304 505h338l-475 -721l239 -367q79 -123 121 -207q55 -110 55 -214q0 -154 -102.5 -248.5t-269.5 -94.5q-79 0 -126 9v239q35 -5 69 -5q57 0 92.5 29t35.5 77q0 51 -27 106q-33 67 -89 153l-184 290h-18l-314 -489h-326z" />
<glyph unicode="&#x4fd;" horiz-adv-x="1208" d="M74 1103h334l195 -362h18l195 362h318l-348 -549l158 -256q70 -115 100 -183q37 -84 37 -168q0 -147 -93.5 -237t-245.5 -90q-80 0 -118 9v223q24 -5 59 -5q59 0 94 28.5t35 77.5q0 34 -16 76q-20 47 -68 126l-120 205h-18l-205 -360h-309l346 545z" />
<glyph unicode="&#x4fe;" horiz-adv-x="1514" d="M98 0l399 629h-300v195h300l-396 619h355l301 -505h18l304 505h338l-408 -619h299v-195h-306l408 -629h-344l-310 489h-18l-314 -489h-326z" />
<glyph unicode="&#x4ff;" horiz-adv-x="1210" d="M74 1103h334l195 -362h18l195 362h318l-298 -469h201v-157h-198l298 -477h-324l-205 360h-18l-205 -360h-309l303 477h-213v157h200z" />
<glyph unicode="&#x2000;" horiz-adv-x="957" />
<glyph unicode="&#x2001;" horiz-adv-x="1915" />
<glyph unicode="&#x2002;" horiz-adv-x="957" />
<glyph unicode="&#x2003;" horiz-adv-x="1915" />
<glyph unicode="&#x2004;" horiz-adv-x="638" />
<glyph unicode="&#x2005;" horiz-adv-x="478" />
<glyph unicode="&#x2006;" horiz-adv-x="319" />
<glyph unicode="&#x2007;" horiz-adv-x="319" />
<glyph unicode="&#x2008;" horiz-adv-x="239" />
<glyph unicode="&#x2009;" horiz-adv-x="383" />
<glyph unicode="&#x200a;" horiz-adv-x="106" />
<glyph unicode="&#x2010;" horiz-adv-x="992" d="M168 446v273h657v-273h-657z" />
<glyph unicode="&#x2011;" horiz-adv-x="992" d="M168 446v273h657v-273h-657z" />
<glyph unicode="&#x2012;" horiz-adv-x="992" d="M168 446v273h657v-273h-657z" />
<glyph unicode="&#x2013;" horiz-adv-x="1024" d="M0 446v273h1024v-273h-1024z" />
<glyph unicode="&#x2014;" horiz-adv-x="2048" d="M0 446v273h2048v-273h-2048z" />
<glyph unicode="&#x2018;" horiz-adv-x="651" d="M121 832l195 611h202l-109 -611h-288z" />
<glyph unicode="&#x2019;" horiz-adv-x="651" d="M153 832l94 611h288l-180 -611h-202z" />
<glyph unicode="&#x201a;" horiz-adv-x="651" d="M147 -391l96 625h286l-178 -625h-204z" />
<glyph unicode="&#x201c;" horiz-adv-x="1130" d="M120 817l188 626h214l-116 -626h-286zM594 817l173 626h214l-101 -626h-286z" />
<glyph unicode="&#x201d;" horiz-adv-x="1130" d="M149 817l102 626h285l-172 -626h-215zM608 817l117 626h285l-187 -626h-215z" />
<glyph unicode="&#x201e;" horiz-adv-x="1130" d="M149 -391l97 625h285l-177 -625h-205zM608 -391l112 625h285l-192 -625h-205z" />
<glyph unicode="&#x2022;" horiz-adv-x="1032" d="M160 572q0 150 104 256t252 106t252.5 -106t104.5 -256q0 -149 -104.5 -255.5t-252.5 -106.5t-252 106.5t-104 255.5z" />
<glyph unicode="&#x2026;" horiz-adv-x="1845" d="M179 147q0 76 48.5 124.5t128.5 48.5t128.5 -48t48.5 -125t-48.5 -125.5t-128.5 -48.5t-128.5 48.5t-48.5 125.5zM746 147q0 76 48.5 124.5t128.5 48.5t128.5 -48t48.5 -125t-48.5 -125.5t-128.5 -48.5q-79 0 -128 48.5t-49 125.5zM1307 147q0 76 48.5 124.5t128.5 48.5 t128.5 -48t48.5 -125t-48.5 -125.5t-128.5 -48.5t-128.5 48.5t-48.5 125.5z" />
<glyph unicode="&#x202f;" horiz-adv-x="383" />
<glyph unicode="&#x2039;" horiz-adv-x="936" d="M158 562v8l349 411h271l-347 -409v-11l347 -410h-276z" />
<glyph unicode="&#x203a;" horiz-adv-x="936" d="M158 151l347 410v11l-347 409h271l349 -411v-8l-344 -411h-276z" />
<glyph unicode="&#x205f;" horiz-adv-x="478" />
<glyph unicode="&#x20ac;" d="M118 487v160h161q-3 36 -3 75q0 23 2 67h-160v161h185q64 248 262.5 384t490.5 136q125 0 204 -23v-257q-82 18 -198 18q-155 0 -270 -66.5t-169 -191.5h531v-161h-572q-3 -33 -3 -67q0 -43 4 -75h571v-160h-529q55 -122 167.5 -187t264.5 -65q145 0 207 15v-260 q-75 -17 -207 -17q-290 0 -488 134.5t-264 379.5h-187z" />
<glyph unicode="&#x2122;" horiz-adv-x="2067" d="M48 1234v209h783v-209h-271v-691h-242v691h-270zM980 543v900h287l184 -491h12l183 491h287v-900h-224v532h-11l-169 -444h-144l-169 444h-11v-532h-225z" />
<glyph unicode="&#x25fc;" horiz-adv-x="1105" d="M0 0v1105h1105v-1105h-1105z" />
</font>
</defs>
</svg>
