<svg width="7" height="11" viewBox="0 0 7 11" fill="none" xmlns="http://www.w3.org/2000/svg">
<path d="M5.31055 10.6973C5.41016 10.7969 5.53906 10.8555 5.69141 10.8555C5.99609 10.8555 6.22461 10.627 6.22461 10.3223C6.22461 10.1758 6.16602 10.041 6.07227 9.94141L1.80664 5.76953L6.07227 1.59766C6.16602 1.49805 6.22461 1.35742 6.22461 1.2168C6.22461 0.912109 5.99609 0.677734 5.69141 0.677734C5.53906 0.677734 5.41016 0.736328 5.31055 0.835938L0.669922 5.37695C0.558594 5.4707 0.494141 5.61719 0.494141 5.76953C0.494141 5.91602 0.552734 6.05078 0.664062 6.16211L5.31055 10.6973Z" fill="#8B8B8B"/>
</svg>
